<svg width="1301" height="299" viewBox="0 0 1301 299" fill="none" xmlns="http://www.w3.org/2000/svg">
<path d="M6 182V88.9091H46.1818C53.0909 88.9091 59.1364 90.2727 64.3182 93C69.5 95.7273 73.5303 99.5606 76.4091 104.5C79.2879 109.439 80.7273 115.212 80.7273 121.818C80.7273 128.485 79.2424 134.258 76.2727 139.136C73.3333 144.015 69.197 147.773 63.8636 150.409C58.5606 153.045 52.3636 154.364 45.2727 154.364H21.2727V134.727H40.1818C43.1515 134.727 45.6818 134.212 47.7727 133.182C49.8939 132.121 51.5152 130.621 52.6364 128.682C53.7879 126.742 54.3636 124.455 54.3636 121.818C54.3636 119.152 53.7879 116.879 52.6364 115C51.5152 113.091 49.8939 111.636 47.7727 110.636C45.6818 109.606 43.1515 109.091 40.1818 109.091H31.2727V182H6ZM118.66 183.273C111.084 183.273 104.599 181.773 99.2055 178.773C93.8115 175.742 89.6752 171.53 86.7964 166.136C83.9176 160.712 82.4782 154.424 82.4782 147.273C82.4782 140.121 83.9176 133.848 86.7964 128.455C89.6752 123.03 93.8115 118.818 99.2055 115.818C104.599 112.788 111.084 111.273 118.66 111.273C126.236 111.273 132.721 112.788 138.115 115.818C143.508 118.818 147.645 123.03 150.524 128.455C153.402 133.848 154.842 140.121 154.842 147.273C154.842 154.424 153.402 160.712 150.524 166.136C147.645 171.53 143.508 175.742 138.115 178.773C132.721 181.773 126.236 183.273 118.66 183.273ZM118.842 164.727C120.963 164.727 122.796 164.015 124.342 162.591C125.887 161.167 127.084 159.136 127.933 156.5C128.781 153.864 129.205 150.727 129.205 147.091C129.205 143.424 128.781 140.288 127.933 137.682C127.084 135.045 125.887 133.015 124.342 131.591C122.796 130.167 120.963 129.455 118.842 129.455C116.599 129.455 114.675 130.167 113.069 131.591C111.463 133.015 110.236 135.045 109.387 137.682C108.539 140.288 108.115 143.424 108.115 147.091C108.115 150.727 108.539 153.864 109.387 156.5C110.236 159.136 111.463 161.167 113.069 162.591C114.675 164.015 116.599 164.727 118.842 164.727ZM161.184 182V112.182H185.547V125.455H186.275C187.547 120.545 189.562 116.955 192.32 114.682C195.108 112.409 198.365 111.273 202.093 111.273C203.184 111.273 204.259 111.364 205.32 111.545C206.411 111.697 207.456 111.924 208.456 112.227V133.636C207.214 133.212 205.684 132.894 203.865 132.682C202.047 132.47 200.487 132.364 199.184 132.364C196.729 132.364 194.517 132.924 192.547 134.045C190.608 135.136 189.078 136.682 187.956 138.682C186.835 140.652 186.275 142.97 186.275 145.636V182H161.184ZM257.355 112.182V130.364H211.355V112.182H257.355ZM220.264 95.4545H245.355V159.545C245.355 160.515 245.522 161.333 245.855 162C246.188 162.636 246.703 163.121 247.4 163.455C248.097 163.758 248.991 163.909 250.082 163.909C250.84 163.909 251.719 163.818 252.719 163.636C253.749 163.455 254.507 163.303 254.991 163.182L258.628 180.818C257.507 181.152 255.9 181.561 253.81 182.045C251.749 182.53 249.294 182.848 246.446 183C240.688 183.303 235.855 182.712 231.946 181.227C228.037 179.712 225.097 177.333 223.128 174.091C221.158 170.848 220.203 166.788 220.264 161.909V95.4545ZM305.572 112.182V130.364H258.845V112.182H305.572ZM267.754 182V110.182C267.754 104.424 268.784 99.6515 270.845 95.8636C272.905 92.0758 275.814 89.2424 279.572 87.3636C283.329 85.4848 287.754 84.5454 292.845 84.5454C296.026 84.5454 299.117 84.7879 302.117 85.2727C305.148 85.7576 307.39 86.1818 308.845 86.5454L305.208 104.545C304.299 104.273 303.239 104.061 302.026 103.909C300.814 103.727 299.754 103.636 298.845 103.636C296.481 103.636 294.89 104.136 294.072 105.136C293.254 106.136 292.845 107.455 292.845 109.091V182H267.754ZM342.925 183.273C335.349 183.273 328.864 181.773 323.47 178.773C318.077 175.742 313.94 171.53 311.061 166.136C308.183 160.712 306.743 154.424 306.743 147.273C306.743 140.121 308.183 133.848 311.061 128.455C313.94 123.03 318.077 118.818 323.47 115.818C328.864 112.788 335.349 111.273 342.925 111.273C350.501 111.273 356.986 112.788 362.38 115.818C367.773 118.818 371.91 123.03 374.789 128.455C377.667 133.848 379.107 140.121 379.107 147.273C379.107 154.424 377.667 160.712 374.789 166.136C371.91 171.53 367.773 175.742 362.38 178.773C356.986 181.773 350.501 183.273 342.925 183.273ZM343.107 164.727C345.228 164.727 347.061 164.015 348.607 162.591C350.152 161.167 351.349 159.136 352.198 156.5C353.046 153.864 353.47 150.727 353.47 147.091C353.47 143.424 353.046 140.288 352.198 137.682C351.349 135.045 350.152 133.015 348.607 131.591C347.061 130.167 345.228 129.455 343.107 129.455C340.864 129.455 338.94 130.167 337.334 131.591C335.728 133.015 334.501 135.045 333.652 137.682C332.804 140.288 332.38 143.424 332.38 147.091C332.38 150.727 332.804 153.864 333.652 156.5C334.501 159.136 335.728 161.167 337.334 162.591C338.94 164.015 340.864 164.727 343.107 164.727ZM410.54 88.9091V182H385.449V88.9091H410.54ZM419.484 182V112.182H444.575V182H419.484ZM432.029 104.909C428.635 104.909 425.726 103.788 423.302 101.545C420.878 99.303 419.665 96.6061 419.665 93.4545C419.665 90.303 420.878 87.6061 423.302 85.3636C425.726 83.1212 428.635 82 432.029 82C435.453 82 438.362 83.1212 440.756 85.3636C443.181 87.6061 444.393 90.303 444.393 93.4545C444.393 96.6061 443.181 99.303 440.756 101.545C438.362 103.788 435.453 104.909 432.029 104.909ZM487.155 183.273C479.579 183.273 473.094 181.773 467.7 178.773C462.307 175.742 458.17 171.53 455.291 166.136C452.413 160.712 450.973 154.424 450.973 147.273C450.973 140.121 452.413 133.848 455.291 128.455C458.17 123.03 462.307 118.818 467.7 115.818C473.094 112.788 479.579 111.273 487.155 111.273C494.731 111.273 501.216 112.788 506.61 115.818C512.003 118.818 516.14 123.03 519.019 128.455C521.897 133.848 523.337 140.121 523.337 147.273C523.337 154.424 521.897 160.712 519.019 166.136C516.14 171.53 512.003 175.742 506.61 178.773C501.216 181.773 494.731 183.273 487.155 183.273ZM487.337 164.727C489.458 164.727 491.291 164.015 492.837 162.591C494.382 161.167 495.579 159.136 496.428 156.5C497.276 153.864 497.7 150.727 497.7 147.091C497.7 143.424 497.276 140.288 496.428 137.682C495.579 135.045 494.382 133.015 492.837 131.591C491.291 130.167 489.458 129.455 487.337 129.455C485.094 129.455 483.17 130.167 481.564 131.591C479.958 133.015 478.731 135.045 477.882 137.682C477.034 140.288 476.61 143.424 476.61 147.091C476.61 150.727 477.034 153.864 477.882 156.5C478.731 159.136 479.958 161.167 481.564 162.591C483.17 164.015 485.094 164.727 487.337 164.727ZM601.157 118C600.914 114.97 599.778 112.606 597.748 110.909C595.748 109.212 592.702 108.364 588.611 108.364C586.005 108.364 583.869 108.682 582.202 109.318C580.566 109.924 579.354 110.758 578.566 111.818C577.778 112.879 577.369 114.091 577.339 115.455C577.278 116.576 577.475 117.591 577.93 118.5C578.414 119.379 579.172 120.182 580.202 120.909C581.233 121.606 582.551 122.242 584.157 122.818C585.763 123.394 587.672 123.909 589.884 124.364L597.52 126C602.672 127.091 607.081 128.53 610.748 130.318C614.414 132.106 617.414 134.212 619.748 136.636C622.081 139.03 623.793 141.727 624.884 144.727C626.005 147.727 626.581 151 626.611 154.545C626.581 160.667 625.051 165.848 622.02 170.091C618.99 174.333 614.657 177.561 609.02 179.773C603.414 181.985 596.672 183.091 588.793 183.091C580.702 183.091 573.642 181.894 567.611 179.5C561.611 177.106 556.945 173.424 553.611 168.455C550.308 163.455 548.642 157.061 548.611 149.273H572.611C572.763 152.121 573.475 154.515 574.748 156.455C576.02 158.394 577.808 159.864 580.111 160.864C582.445 161.864 585.217 162.364 588.43 162.364C591.126 162.364 593.384 162.03 595.202 161.364C597.02 160.697 598.399 159.773 599.339 158.591C600.278 157.409 600.763 156.061 600.793 154.545C600.763 153.121 600.293 151.879 599.384 150.818C598.505 149.727 597.051 148.758 595.02 147.909C592.99 147.03 590.248 146.212 586.793 145.455L577.52 143.455C569.278 141.667 562.778 138.682 558.02 134.5C553.293 130.288 550.945 124.545 550.975 117.273C550.945 111.364 552.52 106.197 555.702 101.773C558.914 97.3182 563.354 93.8485 569.02 91.3636C574.717 88.8788 581.248 87.6364 588.611 87.6364C596.126 87.6364 602.626 88.8939 608.111 91.4091C613.596 93.9242 617.823 97.4697 620.793 102.045C623.793 106.591 625.308 111.909 625.339 118H601.157ZM632.749 182V112.182H657.84V182H632.749ZM645.294 104.909C641.9 104.909 638.991 103.788 636.567 101.545C634.143 99.303 632.93 96.6061 632.93 93.4545C632.93 90.303 634.143 87.6061 636.567 85.3636C638.991 83.1212 641.9 82 645.294 82C648.718 82 651.627 83.1212 654.021 85.3636C656.446 87.6061 657.658 90.303 657.658 93.4545C657.658 96.6061 656.446 99.303 654.021 101.545C651.627 103.788 648.718 104.909 645.294 104.909ZM708.42 112.182V130.364H662.42V112.182H708.42ZM671.329 95.4545H696.42V159.545C696.42 160.515 696.587 161.333 696.92 162C697.253 162.636 697.768 163.121 698.465 163.455C699.162 163.758 700.056 163.909 701.147 163.909C701.905 163.909 702.784 163.818 703.784 163.636C704.814 163.455 705.571 163.303 706.056 163.182L709.693 180.818C708.572 181.152 706.965 181.561 704.875 182.045C702.814 182.53 700.359 182.848 697.511 183C691.753 183.303 686.92 182.712 683.011 181.227C679.102 179.712 676.162 177.333 674.193 174.091C672.223 170.848 671.268 166.788 671.329 161.909V95.4545ZM747.523 183.273C740.069 183.273 733.644 181.848 728.25 179C722.887 176.121 718.75 172 715.841 166.636C712.963 161.242 711.523 154.788 711.523 147.273C711.523 140.061 712.978 133.758 715.887 128.364C718.796 122.97 722.902 118.773 728.205 115.773C733.508 112.773 739.766 111.273 746.978 111.273C752.25 111.273 757.023 112.091 761.296 113.727C765.569 115.364 769.22 117.742 772.25 120.864C775.281 123.955 777.614 127.712 779.25 132.136C780.887 136.561 781.705 141.545 781.705 147.091V152.909H719.341V139.091H758.614C758.584 137.091 758.069 135.333 757.069 133.818C756.099 132.273 754.781 131.076 753.114 130.227C751.478 129.348 749.614 128.909 747.523 128.909C745.493 128.909 743.629 129.348 741.932 130.227C740.235 131.076 738.872 132.258 737.841 133.773C736.841 135.288 736.311 137.061 736.25 139.091V154C736.25 156.242 736.72 158.242 737.66 160C738.599 161.758 739.947 163.136 741.705 164.136C743.463 165.136 745.584 165.636 748.069 165.636C749.796 165.636 751.372 165.394 752.796 164.909C754.25 164.424 755.493 163.727 756.523 162.818C757.554 161.879 758.311 160.758 758.796 159.455H781.705C780.917 164.303 779.054 168.515 776.114 172.091C773.175 175.636 769.281 178.394 764.432 180.364C759.614 182.303 753.978 183.273 747.523 183.273ZM801.74 183.455C798.225 183.455 795.21 182.227 792.695 179.773C790.21 177.288 788.982 174.273 789.013 170.727C788.982 167.273 790.21 164.318 792.695 161.864C795.21 159.409 798.225 158.182 801.74 158.182C805.073 158.182 808.013 159.409 810.558 161.864C813.134 164.318 814.437 167.273 814.467 170.727C814.437 173.091 813.816 175.242 812.604 177.182C811.422 179.091 809.876 180.621 807.967 181.773C806.058 182.894 803.982 183.455 801.74 183.455ZM801.74 136.545C798.225 136.545 795.21 135.318 792.695 132.864C790.21 130.379 788.982 127.364 789.013 123.818C788.982 120.364 790.21 117.409 792.695 114.955C795.21 112.5 798.225 111.273 801.74 111.273C805.073 111.273 808.013 112.5 810.558 114.955C813.134 117.409 814.437 120.364 814.467 123.818C814.437 126.182 813.816 128.333 812.604 130.273C811.422 132.182 809.876 133.712 807.967 134.864C806.058 135.985 803.982 136.545 801.74 136.545ZM86.5455 197.909V291H65.4545L31.8182 242.091H31.2727V291H6V197.909H27.4545L60.5455 246.636H61.2727V197.909H86.5455ZM128.66 292.273C121.084 292.273 114.599 290.773 109.205 287.773C103.812 284.742 99.6752 280.53 96.7964 275.136C93.9176 269.712 92.4782 263.424 92.4782 256.273C92.4782 249.121 93.9176 242.848 96.7964 237.455C99.6752 232.03 103.812 227.818 109.205 224.818C114.599 221.788 121.084 220.273 128.66 220.273C136.236 220.273 142.721 221.788 148.115 224.818C153.508 227.818 157.645 232.03 160.524 237.455C163.402 242.848 164.842 249.121 164.842 256.273C164.842 263.424 163.402 269.712 160.524 275.136C157.645 280.53 153.508 284.742 148.115 287.773C142.721 290.773 136.236 292.273 128.66 292.273ZM128.842 273.727C130.963 273.727 132.796 273.015 134.342 271.591C135.887 270.167 137.084 268.136 137.933 265.5C138.781 262.864 139.205 259.727 139.205 256.091C139.205 252.424 138.781 249.288 137.933 246.682C137.084 244.045 135.887 242.015 134.342 240.591C132.796 239.167 130.963 238.455 128.842 238.455C126.599 238.455 124.675 239.167 123.069 240.591C121.463 242.015 120.236 244.045 119.387 246.682C118.539 249.288 118.115 252.424 118.115 256.091C118.115 259.727 118.539 262.864 119.387 265.5C120.236 268.136 121.463 270.167 123.069 271.591C124.675 273.015 126.599 273.727 128.842 273.727ZM235.002 243.909H211.911C211.79 242.485 211.29 241.258 210.411 240.227C209.532 239.197 208.396 238.409 207.002 237.864C205.638 237.288 204.123 237 202.456 237C200.305 237 198.456 237.394 196.911 238.182C195.365 238.97 194.608 240.091 194.638 241.545C194.608 242.576 195.047 243.53 195.956 244.409C196.896 245.288 198.699 245.97 201.365 246.455L215.547 249C222.699 250.303 228.017 252.5 231.502 255.591C235.017 258.652 236.79 262.758 236.82 267.909C236.79 272.879 235.305 277.197 232.365 280.864C229.456 284.5 225.472 287.318 220.411 289.318C215.381 291.288 209.638 292.273 203.184 292.273C192.517 292.273 184.168 290.091 178.138 285.727C172.138 281.364 168.79 275.606 168.093 268.455H193.002C193.335 270.667 194.426 272.379 196.275 273.591C198.153 274.773 200.517 275.364 203.365 275.364C205.668 275.364 207.562 274.97 209.047 274.182C210.562 273.394 211.335 272.273 211.365 270.818C211.335 269.485 210.668 268.424 209.365 267.636C208.093 266.848 206.093 266.212 203.365 265.727L191.002 263.545C183.881 262.303 178.547 259.939 175.002 256.455C171.456 252.97 169.699 248.485 169.729 243C169.699 238.152 170.972 234.045 173.547 230.682C176.153 227.288 179.865 224.712 184.684 222.955C189.532 221.167 195.275 220.273 201.911 220.273C212.002 220.273 219.956 222.364 225.775 226.545C231.623 230.727 234.699 236.515 235.002 243.909ZM276.048 292.273C268.594 292.273 262.169 290.848 256.775 288C251.412 285.121 247.275 281 244.366 275.636C241.488 270.242 240.048 263.788 240.048 256.273C240.048 249.061 241.503 242.758 244.412 237.364C247.321 231.97 251.427 227.773 256.73 224.773C262.033 221.773 268.291 220.273 275.503 220.273C280.775 220.273 285.548 221.091 289.821 222.727C294.094 224.364 297.745 226.742 300.775 229.864C303.806 232.955 306.139 236.712 307.775 241.136C309.412 245.561 310.23 250.545 310.23 256.091V261.909H247.866V248.091H287.139C287.109 246.091 286.594 244.333 285.594 242.818C284.624 241.273 283.306 240.076 281.639 239.227C280.003 238.348 278.139 237.909 276.048 237.909C274.018 237.909 272.154 238.348 270.457 239.227C268.76 240.076 267.397 241.258 266.366 242.773C265.366 244.288 264.836 246.061 264.775 248.091V263C264.775 265.242 265.245 267.242 266.185 269C267.124 270.758 268.472 272.136 270.23 273.136C271.988 274.136 274.109 274.636 276.594 274.636C278.321 274.636 279.897 274.394 281.321 273.909C282.775 273.424 284.018 272.727 285.048 271.818C286.078 270.879 286.836 269.758 287.321 268.455H310.23C309.442 273.303 307.578 277.515 304.639 281.091C301.7 284.636 297.806 287.394 292.957 289.364C288.139 291.303 282.503 292.273 276.048 292.273ZM316.265 291V197.909H341.356V233.364H341.72C342.629 231 343.962 228.833 345.72 226.864C347.477 224.864 349.659 223.273 352.265 222.091C354.871 220.879 357.901 220.273 361.356 220.273C365.962 220.273 370.341 221.5 374.492 223.955C378.674 226.409 382.068 230.273 384.674 235.545C387.31 240.818 388.629 247.667 388.629 256.091C388.629 264.152 387.371 270.833 384.856 276.136C382.371 281.439 379.038 285.394 374.856 288C370.704 290.606 366.144 291.909 361.174 291.909C357.901 291.909 354.977 291.379 352.401 290.318C349.856 289.227 347.674 287.758 345.856 285.909C344.068 284.03 342.689 281.909 341.72 279.545H341.174V291H316.265ZM340.81 256.091C340.81 259.485 341.25 262.424 342.129 264.909C343.038 267.364 344.31 269.273 345.947 270.636C347.614 271.97 349.598 272.636 351.901 272.636C354.204 272.636 356.159 271.985 357.765 270.682C359.401 269.348 360.644 267.455 361.492 265C362.371 262.515 362.81 259.545 362.81 256.091C362.81 252.636 362.371 249.682 361.492 247.227C360.644 244.742 359.401 242.848 357.765 241.545C356.159 240.212 354.204 239.545 351.901 239.545C349.598 239.545 347.614 240.212 345.947 241.545C344.31 242.848 343.038 244.742 342.129 247.227C341.25 249.682 340.81 252.636 340.81 256.091ZM420.38 197.909V291H395.289V197.909H420.38ZM462.778 292.273C455.324 292.273 448.899 290.848 443.505 288C438.142 285.121 434.005 281 431.096 275.636C428.218 270.242 426.778 263.788 426.778 256.273C426.778 249.061 428.233 242.758 431.142 237.364C434.051 231.97 438.157 227.773 443.46 224.773C448.763 221.773 455.021 220.273 462.233 220.273C467.505 220.273 472.278 221.091 476.551 222.727C480.824 224.364 484.475 226.742 487.505 229.864C490.536 232.955 492.869 236.712 494.505 241.136C496.142 245.561 496.96 250.545 496.96 256.091V261.909H434.596V248.091H473.869C473.839 246.091 473.324 244.333 472.324 242.818C471.354 241.273 470.036 240.076 468.369 239.227C466.733 238.348 464.869 237.909 462.778 237.909C460.748 237.909 458.884 238.348 457.187 239.227C455.49 240.076 454.127 241.258 453.096 242.773C452.096 244.288 451.566 246.061 451.505 248.091V263C451.505 265.242 451.975 267.242 452.915 269C453.854 270.758 455.202 272.136 456.96 273.136C458.718 274.136 460.839 274.636 463.324 274.636C465.051 274.636 466.627 274.394 468.051 273.909C469.505 273.424 470.748 272.727 471.778 271.818C472.808 270.879 473.566 269.758 474.051 268.455H496.96C496.172 273.303 494.308 277.515 491.369 281.091C488.43 284.636 484.536 287.394 479.687 289.364C474.869 291.303 469.233 292.273 462.778 292.273ZM536.813 292.273C529.359 292.273 522.934 290.848 517.54 288C512.177 285.121 508.04 281 505.131 275.636C502.253 270.242 500.813 263.788 500.813 256.273C500.813 249.061 502.268 242.758 505.177 237.364C508.086 231.97 512.192 227.773 517.495 224.773C522.798 221.773 529.056 220.273 536.268 220.273C541.54 220.273 546.313 221.091 550.586 222.727C554.859 224.364 558.51 226.742 561.54 229.864C564.571 232.955 566.904 236.712 568.54 241.136C570.177 245.561 570.995 250.545 570.995 256.091V261.909H508.631V248.091H547.904C547.874 246.091 547.359 244.333 546.359 242.818C545.389 241.273 544.071 240.076 542.404 239.227C540.768 238.348 538.904 237.909 536.813 237.909C534.783 237.909 532.919 238.348 531.222 239.227C529.525 240.076 528.162 241.258 527.131 242.773C526.131 244.288 525.601 246.061 525.54 248.091V263C525.54 265.242 526.01 267.242 526.95 269C527.889 270.758 529.237 272.136 530.995 273.136C532.753 274.136 534.874 274.636 537.359 274.636C539.086 274.636 540.662 274.394 542.086 273.909C543.54 273.424 544.783 272.727 545.813 271.818C546.843 270.879 547.601 269.758 548.086 268.455H570.995C570.207 273.303 568.343 277.515 565.404 281.091C562.465 284.636 558.571 287.394 553.722 289.364C548.904 291.303 543.268 292.273 536.813 292.273ZM602.666 291.909C597.697 291.909 593.121 290.606 588.939 288C584.788 285.394 581.454 281.439 578.939 276.136C576.454 270.833 575.212 264.152 575.212 256.091C575.212 247.667 576.515 240.818 579.121 235.545C581.757 230.273 585.151 226.409 589.303 223.955C593.485 221.5 597.879 220.273 602.485 220.273C605.939 220.273 608.969 220.879 611.575 222.091C614.182 223.273 616.363 224.864 618.121 226.864C619.879 228.833 621.212 231 622.121 233.364H622.485V197.909H647.575V291H622.666V279.545H622.121C621.151 281.909 619.757 284.03 617.939 285.909C616.151 287.758 613.969 289.227 611.394 290.318C608.848 291.379 605.939 291.909 602.666 291.909ZM611.939 272.636C614.242 272.636 616.212 271.97 617.848 270.636C619.515 269.273 620.788 267.364 621.666 264.909C622.575 262.424 623.03 259.485 623.03 256.091C623.03 252.636 622.575 249.682 621.666 247.227C620.788 244.742 619.515 242.848 617.848 241.545C616.212 240.212 614.242 239.545 611.939 239.545C609.636 239.545 607.666 240.212 606.03 241.545C604.424 242.848 603.182 244.742 602.303 247.227C601.454 249.682 601.03 252.636 601.03 256.091C601.03 259.545 601.454 262.515 602.303 265C603.182 267.455 604.424 269.348 606.03 270.682C607.666 271.985 609.636 272.636 611.939 272.636ZM677.35 291V197.909H717.532C724.441 197.909 730.486 199.273 735.668 202C740.85 204.727 744.88 208.561 747.759 213.5C750.638 218.439 752.077 224.212 752.077 230.818C752.077 237.485 750.592 243.258 747.623 248.136C744.683 253.015 740.547 256.773 735.214 259.409C729.911 262.045 723.714 263.364 716.623 263.364H692.623V243.727H711.532C714.501 243.727 717.032 243.212 719.123 242.182C721.244 241.121 722.865 239.621 723.986 237.682C725.138 235.742 725.714 233.455 725.714 230.818C725.714 228.152 725.138 225.879 723.986 224C722.865 222.091 721.244 220.636 719.123 219.636C717.032 218.606 714.501 218.091 711.532 218.091H702.623V291H677.35ZM782.965 197.909V291H757.874V197.909H782.965ZM811.363 292.091C806.909 292.091 802.969 291.364 799.545 289.909C796.151 288.424 793.484 286.182 791.545 283.182C789.606 280.182 788.636 276.364 788.636 271.727C788.636 267.909 789.287 264.652 790.59 261.955C791.893 259.227 793.712 257 796.045 255.273C798.378 253.545 801.09 252.227 804.181 251.318C807.303 250.409 810.666 249.818 814.272 249.545C818.181 249.242 821.318 248.879 823.681 248.455C826.075 248 827.803 247.379 828.863 246.591C829.924 245.773 830.454 244.697 830.454 243.364V243.182C830.454 241.364 829.757 239.97 828.363 239C826.969 238.03 825.181 237.545 823 237.545C820.606 237.545 818.651 238.076 817.136 239.136C815.651 240.167 814.757 241.758 814.454 243.909H791.363C791.666 239.667 793.015 235.758 795.409 232.182C797.833 228.576 801.363 225.697 806 223.545C810.636 221.364 816.424 220.273 823.363 220.273C828.363 220.273 832.848 220.864 836.818 222.045C840.787 223.197 844.166 224.818 846.954 226.909C849.742 228.97 851.863 231.394 853.318 234.182C854.803 236.939 855.545 239.939 855.545 243.182V291H832.09V281.182H831.545C830.151 283.788 828.454 285.894 826.454 287.5C824.484 289.106 822.227 290.273 819.681 291C817.166 291.727 814.393 292.091 811.363 292.091ZM819.545 276.273C821.454 276.273 823.242 275.879 824.909 275.091C826.606 274.303 827.984 273.167 829.045 271.682C830.106 270.197 830.636 268.394 830.636 266.273V260.455C829.969 260.727 829.257 260.985 828.5 261.227C827.772 261.47 826.984 261.697 826.136 261.909C825.318 262.121 824.439 262.318 823.5 262.5C822.59 262.682 821.636 262.848 820.636 263C818.697 263.303 817.106 263.803 815.863 264.5C814.651 265.167 813.742 266 813.136 267C812.56 267.97 812.272 269.061 812.272 270.273C812.272 272.212 812.954 273.697 814.318 274.727C815.681 275.758 817.424 276.273 819.545 276.273ZM888.785 251.727V291H863.694V221.182H887.512V234.455H888.239C889.754 230.03 892.421 226.561 896.239 224.045C900.088 221.53 904.572 220.273 909.694 220.273C914.633 220.273 918.921 221.409 922.557 223.682C926.224 225.924 929.057 229.015 931.057 232.955C933.088 236.894 934.088 241.394 934.057 246.455V291H908.966V251.727C908.997 248.273 908.118 245.561 906.33 243.591C904.572 241.621 902.118 240.636 898.966 240.636C896.906 240.636 895.103 241.091 893.557 242C892.042 242.879 890.875 244.152 890.057 245.818C889.239 247.455 888.815 249.424 888.785 251.727ZM984.24 221.182V239.364H938.24V221.182H984.24ZM947.149 204.455H972.24V268.545C972.24 269.515 972.407 270.333 972.74 271C973.073 271.636 973.588 272.121 974.285 272.455C974.982 272.758 975.876 272.909 976.967 272.909C977.725 272.909 978.604 272.818 979.604 272.636C980.634 272.455 981.392 272.303 981.876 272.182L985.513 289.818C984.392 290.152 982.785 290.561 980.695 291.045C978.634 291.53 976.179 291.848 973.331 292C967.573 292.303 962.74 291.712 958.831 290.227C954.922 288.712 951.982 286.333 950.013 283.091C948.043 279.848 947.088 275.788 947.149 270.909V204.455Z" fill="#0C0F16"/>
<path d="M861.92 14.4886C861.958 13.5417 861.682 12.8106 861.091 12.2955C860.508 11.7803 859.625 11.5227 858.443 11.5227C857.64 11.5227 856.943 11.6364 856.352 11.8636C855.761 12.0833 855.288 12.3902 854.932 12.7841C854.583 13.1705 854.367 13.6174 854.284 14.125C854.201 14.5417 854.227 14.9053 854.364 15.2159C854.508 15.5265 854.731 15.7955 855.034 16.0227C855.345 16.2424 855.712 16.4356 856.136 16.6023C856.561 16.7614 857.011 16.8977 857.489 17.0114L859.489 17.5114C860.466 17.7386 861.345 18.0417 862.125 18.4205C862.913 18.7992 863.572 19.2652 864.102 19.8182C864.64 20.3712 865.019 21.0227 865.239 21.7727C865.458 22.5227 865.489 23.3826 865.33 24.3523C865.087 25.7765 864.523 27.0114 863.636 28.0568C862.75 29.0947 861.587 29.9015 860.148 30.4773C858.708 31.0455 857.042 31.3295 855.148 31.3295C853.269 31.3295 851.682 31.0417 850.386 30.4659C849.091 29.8902 848.148 29.0379 847.557 27.9091C846.973 26.7727 846.799 25.3674 847.034 23.6932H851.795C851.712 24.4735 851.826 25.125 852.136 25.6477C852.455 26.1629 852.928 26.553 853.557 26.8182C854.186 27.0758 854.924 27.2045 855.773 27.2045C856.614 27.2045 857.36 27.0833 858.011 26.8409C858.67 26.5985 859.205 26.2614 859.614 25.8295C860.023 25.3977 860.273 24.9015 860.364 24.3409C860.455 23.8182 860.375 23.3788 860.125 23.0227C859.875 22.6667 859.473 22.3636 858.92 22.1136C858.375 21.8561 857.697 21.6288 856.886 21.4318L854.455 20.7955C852.576 20.3182 851.155 19.572 850.193 18.5568C849.231 17.5417 848.886 16.1742 849.159 14.4545C849.402 13.0455 849.989 11.8144 850.92 10.7614C851.86 9.70076 853.042 8.87879 854.466 8.29545C855.898 7.70454 857.462 7.40909 859.159 7.40909C860.886 7.40909 862.345 7.70833 863.534 8.30682C864.723 8.89773 865.591 9.72348 866.136 10.7841C866.682 11.8447 866.848 13.0795 866.636 14.4886H861.92ZM890.56 15.875H885.651C885.666 15.2235 885.582 14.6477 885.401 14.1477C885.219 13.6402 884.946 13.2083 884.582 12.8523C884.226 12.4962 883.791 12.2273 883.276 12.0455C882.76 11.8561 882.181 11.7614 881.537 11.7614C880.295 11.7614 879.154 12.072 878.116 12.6932C877.079 13.3144 876.204 14.2159 875.491 15.3977C874.779 16.572 874.287 17.9924 874.014 19.6591C873.749 21.2652 873.764 22.6098 874.06 23.6932C874.355 24.7765 874.878 25.5947 875.628 26.1477C876.385 26.6932 877.329 26.9659 878.457 26.9659C879.154 26.9659 879.817 26.8788 880.446 26.7045C881.075 26.5227 881.647 26.2652 882.162 25.9318C882.685 25.5909 883.139 25.178 883.526 24.6932C883.92 24.2083 884.226 23.6591 884.446 23.0455H889.389C889.079 24.1136 888.594 25.1439 887.935 26.1364C887.283 27.1288 886.476 28.0152 885.514 28.7955C884.552 29.5682 883.457 30.1818 882.23 30.6364C881.003 31.0909 879.658 31.3182 878.196 31.3182C876.082 31.3182 874.268 30.8333 872.753 29.8636C871.245 28.8939 870.158 27.4962 869.491 25.6705C868.825 23.8447 868.7 21.6439 869.116 19.0682C869.533 16.5758 870.348 14.4621 871.56 12.7273C872.779 10.9848 874.26 9.66288 876.003 8.76136C877.753 7.85985 879.624 7.40909 881.616 7.40909C883.003 7.40909 884.257 7.59848 885.378 7.97727C886.499 8.35606 887.454 8.90909 888.241 9.63636C889.037 10.3561 889.635 11.2386 890.037 12.2841C890.438 13.3295 890.613 14.5265 890.56 15.875ZM891.599 31L895.463 7.72727H904.645C906.402 7.72727 907.849 8.03788 908.986 8.65909C910.13 9.2803 910.933 10.1629 911.395 11.3068C911.865 12.4432 911.974 13.7841 911.724 15.3295C911.467 16.875 910.91 18.2008 910.054 19.3068C909.205 20.4129 908.099 21.2652 906.736 21.8636C905.38 22.4545 903.808 22.75 902.02 22.75H895.872L896.554 18.7955H901.895C902.834 18.7955 903.637 18.6667 904.304 18.4091C904.971 18.1515 905.497 17.7652 905.884 17.25C906.277 16.7348 906.535 16.0947 906.656 15.3295C906.785 14.5492 906.74 13.8977 906.52 13.375C906.3 12.8447 905.902 12.4432 905.327 12.1705C904.751 11.8902 903.993 11.75 903.054 11.75H899.736L896.52 31H891.599ZM905.918 20.4091L909.952 31H904.52L900.611 20.4091H905.918ZM936.06 19.6818C935.635 22.1667 934.813 24.2765 933.594 26.0114C932.382 27.7462 930.901 29.0644 929.151 29.9659C927.408 30.8674 925.529 31.3182 923.514 31.3182C921.401 31.3182 919.579 30.8371 918.048 29.875C916.526 28.9129 915.423 27.5227 914.741 25.7045C914.06 23.8788 913.931 21.678 914.355 19.1023C914.764 16.6098 915.579 14.4962 916.798 12.7614C918.018 11.0189 919.507 9.69318 921.264 8.78409C923.022 7.86742 924.912 7.40909 926.935 7.40909C929.033 7.40909 930.844 7.89394 932.366 8.86364C933.897 9.83333 934.999 11.2348 935.673 13.0682C936.355 14.8939 936.484 17.0985 936.06 19.6818ZM931.162 19.1023C931.427 17.5038 931.416 16.1629 931.128 15.0795C930.848 13.9886 930.332 13.1629 929.582 12.6023C928.832 12.0417 927.885 11.7614 926.741 11.7614C925.499 11.7614 924.359 12.072 923.321 12.6932C922.291 13.3144 921.42 14.2159 920.707 15.3977C920.003 16.572 919.514 18 919.241 19.6818C918.969 21.2879 918.976 22.6288 919.264 23.7045C919.56 24.7803 920.086 25.5947 920.844 26.1477C921.609 26.6932 922.56 26.9659 923.696 26.9659C924.931 26.9659 926.06 26.6629 927.082 26.0568C928.113 25.4432 928.98 24.553 929.685 23.3864C930.389 22.2121 930.882 20.7841 931.162 19.1023ZM937.818 31L941.682 7.72727H946.602L943.42 26.9432H953.398L952.716 31H937.818ZM955.974 31L959.838 7.72727H964.759L961.577 26.9432H971.554L970.872 31H955.974ZM989.901 31H981.537L985.401 7.72727H993.605C995.946 7.72727 997.889 8.20454 999.435 9.15909C1000.99 10.1136 1002.08 11.4811 1002.72 13.2614C1003.36 15.0341 1003.47 17.1515 1003.06 19.6136C1002.67 21.9924 1001.88 24.0341 1000.71 25.7386C999.533 27.4356 998.029 28.7386 996.196 29.6477C994.363 30.5492 992.264 31 989.901 31ZM987.162 26.7841H990.185C991.647 26.7841 992.927 26.5114 994.026 25.9659C995.132 25.4205 996.037 24.5795 996.741 23.4432C997.454 22.3068 997.957 20.8523 998.253 19.0795C998.533 17.3977 998.514 16.0341 998.196 14.9886C997.885 13.9356 997.283 13.1667 996.389 12.6818C995.495 12.1894 994.321 11.9432 992.866 11.9432H989.628L987.162 26.7841ZM1028.09 19.6818C1027.67 22.1667 1026.84 24.2765 1025.62 26.0114C1024.41 27.7462 1022.93 29.0644 1021.18 29.9659C1019.44 30.8674 1017.56 31.3182 1015.55 31.3182C1013.43 31.3182 1011.61 30.8371 1010.08 29.875C1008.56 28.9129 1007.45 27.5227 1006.77 25.7045C1006.09 23.8788 1005.96 21.678 1006.39 19.1023C1006.8 16.6098 1007.61 14.4962 1008.83 12.7614C1010.05 11.0189 1011.54 9.69318 1013.3 8.78409C1015.05 7.86742 1016.94 7.40909 1018.97 7.40909C1021.06 7.40909 1022.88 7.89394 1024.4 8.86364C1025.93 9.83333 1027.03 11.2348 1027.7 13.0682C1028.39 14.8939 1028.52 17.0985 1028.09 19.6818ZM1023.19 19.1023C1023.46 17.5038 1023.45 16.1629 1023.16 15.0795C1022.88 13.9886 1022.36 13.1629 1021.61 12.6023C1020.86 12.0417 1019.92 11.7614 1018.77 11.7614C1017.53 11.7614 1016.39 12.072 1015.35 12.6932C1014.32 13.3144 1013.45 14.2159 1012.74 15.3977C1012.03 16.572 1011.55 18 1011.27 19.6818C1011 21.2879 1011.01 22.6288 1011.3 23.7045C1011.59 24.7803 1012.12 25.5947 1012.88 26.1477C1013.64 26.6932 1014.59 26.9659 1015.73 26.9659C1016.96 26.9659 1018.09 26.6629 1019.11 26.0568C1020.14 25.4432 1021.01 24.553 1021.72 23.3864C1022.42 22.2121 1022.91 20.7841 1023.19 19.1023ZM1034.21 31L1031.42 7.72727H1036.79L1037.97 23.8977H1038.17L1045.09 7.72727H1049.69L1051.26 23.9318H1051.46L1057.99 7.72727H1063.36L1052.84 31H1048.04L1046.16 15.7841H1045.97L1039.01 31H1034.21ZM1085.46 7.72727L1081.6 31H1077.35L1069.68 16.3523H1069.49L1067.05 31H1062.13L1065.99 7.72727H1070.31L1077.95 22.3636H1078.14L1080.56 7.72727H1085.46ZM1093.07 31L1096.93 7.72727H1112.34L1111.66 11.7841H1101.17L1100.26 17.3295H1109.73L1109.05 21.3864H1099.58L1097.99 31H1093.07ZM1135.06 19.6818C1134.64 22.1667 1133.81 24.2765 1132.59 26.0114C1131.38 27.7462 1129.9 29.0644 1128.15 29.9659C1126.41 30.8674 1124.53 31.3182 1122.51 31.3182C1120.4 31.3182 1118.58 30.8371 1117.05 29.875C1115.53 28.9129 1114.42 27.5227 1113.74 25.7045C1113.06 23.8788 1112.93 21.678 1113.36 19.1023C1113.76 16.6098 1114.58 14.4962 1115.8 12.7614C1117.02 11.0189 1118.51 9.69318 1120.26 8.78409C1122.02 7.86742 1123.91 7.40909 1125.93 7.40909C1128.03 7.40909 1129.84 7.89394 1131.37 8.86364C1132.9 9.83333 1134 11.2348 1134.67 13.0682C1135.36 14.8939 1135.48 17.0985 1135.06 19.6818ZM1130.16 19.1023C1130.43 17.5038 1130.42 16.1629 1130.13 15.0795C1129.85 13.9886 1129.33 13.1629 1128.58 12.6023C1127.83 12.0417 1126.89 11.7614 1125.74 11.7614C1124.5 11.7614 1123.36 12.072 1122.32 12.6932C1121.29 13.3144 1120.42 14.2159 1119.71 15.3977C1119 16.572 1118.51 18 1118.24 19.6818C1117.97 21.2879 1117.98 22.6288 1118.26 23.7045C1118.56 24.7803 1119.09 25.5947 1119.84 26.1477C1120.61 26.6932 1121.56 26.9659 1122.7 26.9659C1123.93 26.9659 1125.06 26.6629 1126.08 26.0568C1127.11 25.4432 1127.98 24.553 1128.68 23.3864C1129.39 22.2121 1129.88 20.7841 1130.16 19.1023ZM1136.82 31L1140.68 7.72727H1149.86C1151.62 7.72727 1153.07 8.03788 1154.2 8.65909C1155.35 9.2803 1156.15 10.1629 1156.61 11.3068C1157.08 12.4432 1157.19 13.7841 1156.94 15.3295C1156.69 16.875 1156.13 18.2008 1155.27 19.3068C1154.42 20.4129 1153.32 21.2652 1151.95 21.8636C1150.6 22.4545 1149.03 22.75 1147.24 22.75H1141.09L1141.77 18.7955H1147.11C1148.05 18.7955 1148.86 18.6667 1149.52 18.4091C1150.19 18.1515 1150.72 17.7652 1151.1 17.25C1151.5 16.7348 1151.75 16.0947 1151.88 15.3295C1152 14.5492 1151.96 13.8977 1151.74 13.375C1151.52 12.8447 1151.12 12.4432 1150.55 12.1705C1149.97 11.8902 1149.21 11.75 1148.27 11.75H1144.95L1141.74 31H1136.82ZM1151.14 20.4091L1155.17 31H1149.74L1145.83 20.4091H1151.14ZM1169.28 7.72727H1175.34L1179.17 23.3636H1179.45L1188.43 7.72727H1194.5L1190.64 31H1185.87L1188.39 15.8523H1188.18L1179.68 30.8864H1176.42L1172.92 15.7955H1172.73L1170.18 31H1165.41L1169.28 7.72727ZM1217.97 19.6818C1217.54 22.1667 1216.72 24.2765 1215.5 26.0114C1214.29 27.7462 1212.81 29.0644 1211.06 29.9659C1209.31 30.8674 1207.44 31.3182 1205.42 31.3182C1203.31 31.3182 1201.48 30.8371 1199.95 29.875C1198.43 28.9129 1197.33 27.5227 1196.65 25.7045C1195.97 23.8788 1195.84 21.678 1196.26 19.1023C1196.67 16.6098 1197.48 14.4962 1198.7 12.7614C1199.92 11.0189 1201.41 9.69318 1203.17 8.78409C1204.93 7.86742 1206.82 7.40909 1208.84 7.40909C1210.94 7.40909 1212.75 7.89394 1214.27 8.86364C1215.8 9.83333 1216.91 11.2348 1217.58 13.0682C1218.26 14.8939 1218.39 17.0985 1217.97 19.6818ZM1213.07 19.1023C1213.33 17.5038 1213.32 16.1629 1213.03 15.0795C1212.75 13.9886 1212.24 13.1629 1211.49 12.6023C1210.74 12.0417 1209.79 11.7614 1208.65 11.7614C1207.41 11.7614 1206.27 12.072 1205.23 12.6932C1204.2 13.3144 1203.33 14.2159 1202.61 15.3977C1201.91 16.572 1201.42 18 1201.15 19.6818C1200.88 21.2879 1200.88 22.6288 1201.17 23.7045C1201.47 24.7803 1201.99 25.5947 1202.75 26.1477C1203.52 26.6932 1204.47 26.9659 1205.6 26.9659C1206.84 26.9659 1207.97 26.6629 1208.99 26.0568C1210.02 25.4432 1210.89 24.553 1211.59 23.3864C1212.3 22.2121 1212.79 20.7841 1213.07 19.1023ZM1219.72 31L1223.59 7.72727H1232.77C1234.53 7.72727 1235.97 8.03788 1237.11 8.65909C1238.25 9.2803 1239.06 10.1629 1239.52 11.3068C1239.99 12.4432 1240.1 13.7841 1239.85 15.3295C1239.59 16.875 1239.04 18.2008 1238.18 19.3068C1237.33 20.4129 1236.22 21.2652 1234.86 21.8636C1233.5 22.4545 1231.93 22.75 1230.14 22.75H1224L1224.68 18.7955H1230.02C1230.96 18.7955 1231.76 18.6667 1232.43 18.4091C1233.1 18.1515 1233.62 17.7652 1234.01 17.25C1234.4 16.7348 1234.66 16.0947 1234.78 15.3295C1234.91 14.5492 1234.86 13.8977 1234.64 13.375C1234.43 12.8447 1234.03 12.4432 1233.45 12.1705C1232.88 11.8902 1232.12 11.75 1231.18 11.75H1227.86L1224.64 31H1219.72ZM1234.04 20.4091L1238.08 31H1232.64L1228.74 20.4091H1234.04ZM1240.91 31L1244.78 7.72727H1260.46L1259.78 11.7841H1249.01L1248.11 17.3295H1258.06L1257.38 21.3864H1247.42L1246.51 26.9432H1257.32L1256.64 31H1240.91ZM1269.13 7.72727H1299.09L1284.11 32.4545L1269.13 7.72727ZM861.92 53.4886C861.958 52.5417 861.682 51.8106 861.091 51.2955C860.508 50.7803 859.625 50.5227 858.443 50.5227C857.64 50.5227 856.943 50.6364 856.352 50.8636C855.761 51.0833 855.288 51.3902 854.932 51.7841C854.583 52.1705 854.367 52.6174 854.284 53.125C854.201 53.5417 854.227 53.9053 854.364 54.2159C854.508 54.5265 854.731 54.7955 855.034 55.0227C855.345 55.2424 855.712 55.4356 856.136 55.6023C856.561 55.7614 857.011 55.8977 857.489 56.0114L859.489 56.5114C860.466 56.7386 861.345 57.0417 862.125 57.4205C862.913 57.7992 863.572 58.2652 864.102 58.8182C864.64 59.3712 865.019 60.0227 865.239 60.7727C865.458 61.5227 865.489 62.3826 865.33 63.3523C865.087 64.7765 864.523 66.0114 863.636 67.0568C862.75 68.0947 861.587 68.9015 860.148 69.4773C858.708 70.0455 857.042 70.3295 855.148 70.3295C853.269 70.3295 851.682 70.0417 850.386 69.4659C849.091 68.8902 848.148 68.0379 847.557 66.9091C846.973 65.7727 846.799 64.3674 847.034 62.6932H851.795C851.712 63.4735 851.826 64.125 852.136 64.6477C852.455 65.1629 852.928 65.553 853.557 65.8182C854.186 66.0758 854.924 66.2045 855.773 66.2045C856.614 66.2045 857.36 66.0833 858.011 65.8409C858.67 65.5985 859.205 65.2614 859.614 64.8295C860.023 64.3977 860.273 63.9015 860.364 63.3409C860.455 62.8182 860.375 62.3788 860.125 62.0227C859.875 61.6667 859.473 61.3636 858.92 61.1136C858.375 60.8561 857.697 60.6288 856.886 60.4318L854.455 59.7955C852.576 59.3182 851.155 58.572 850.193 57.5568C849.231 56.5417 848.886 55.1742 849.159 53.4545C849.402 52.0455 849.989 50.8144 850.92 49.7614C851.86 48.7008 853.042 47.8788 854.466 47.2955C855.898 46.7045 857.462 46.4091 859.159 46.4091C860.886 46.4091 862.345 46.7083 863.534 47.3068C864.723 47.8977 865.591 48.7235 866.136 49.7841C866.682 50.8447 866.848 52.0795 866.636 53.4886H861.92ZM890.56 54.875H885.651C885.666 54.2235 885.582 53.6477 885.401 53.1477C885.219 52.6402 884.946 52.2083 884.582 51.8523C884.226 51.4962 883.791 51.2273 883.276 51.0455C882.76 50.8561 882.181 50.7614 881.537 50.7614C880.295 50.7614 879.154 51.072 878.116 51.6932C877.079 52.3144 876.204 53.2159 875.491 54.3977C874.779 55.572 874.287 56.9924 874.014 58.6591C873.749 60.2652 873.764 61.6098 874.06 62.6932C874.355 63.7765 874.878 64.5947 875.628 65.1477C876.385 65.6932 877.329 65.9659 878.457 65.9659C879.154 65.9659 879.817 65.8788 880.446 65.7045C881.075 65.5227 881.647 65.2652 882.162 64.9318C882.685 64.5909 883.139 64.178 883.526 63.6932C883.92 63.2083 884.226 62.6591 884.446 62.0455H889.389C889.079 63.1136 888.594 64.1439 887.935 65.1364C887.283 66.1288 886.476 67.0152 885.514 67.7955C884.552 68.5682 883.457 69.1818 882.23 69.6364C881.003 70.0909 879.658 70.3182 878.196 70.3182C876.082 70.3182 874.268 69.8333 872.753 68.8636C871.245 67.8939 870.158 66.4962 869.491 64.6705C868.825 62.8447 868.7 60.6439 869.116 58.0682C869.533 55.5758 870.348 53.4621 871.56 51.7273C872.779 49.9848 874.26 48.6629 876.003 47.7614C877.753 46.8598 879.624 46.4091 881.616 46.4091C883.003 46.4091 884.257 46.5985 885.378 46.9773C886.499 47.3561 887.454 47.9091 888.241 48.6364C889.037 49.3561 889.635 50.2386 890.037 51.2841C890.438 52.3295 890.613 53.5265 890.56 54.875ZM891.599 70L895.463 46.7273H904.645C906.402 46.7273 907.849 47.0379 908.986 47.6591C910.13 48.2803 910.933 49.1629 911.395 50.3068C911.865 51.4432 911.974 52.7841 911.724 54.3295C911.467 55.875 910.91 57.2008 910.054 58.3068C909.205 59.4129 908.099 60.2652 906.736 60.8636C905.38 61.4545 903.808 61.75 902.02 61.75H895.872L896.554 57.7955H901.895C902.834 57.7955 903.637 57.6667 904.304 57.4091C904.971 57.1515 905.497 56.7652 905.884 56.25C906.277 55.7348 906.535 55.0947 906.656 54.3295C906.785 53.5492 906.74 52.8977 906.52 52.375C906.3 51.8447 905.902 51.4432 905.327 51.1705C904.751 50.8902 903.993 50.75 903.054 50.75H899.736L896.52 70H891.599ZM905.918 59.4091L909.952 70H904.52L900.611 59.4091H905.918ZM936.06 58.6818C935.635 61.1667 934.813 63.2765 933.594 65.0114C932.382 66.7462 930.901 68.0644 929.151 68.9659C927.408 69.8674 925.529 70.3182 923.514 70.3182C921.401 70.3182 919.579 69.8371 918.048 68.875C916.526 67.9129 915.423 66.5227 914.741 64.7045C914.06 62.8788 913.931 60.678 914.355 58.1023C914.764 55.6098 915.579 53.4962 916.798 51.7614C918.018 50.0189 919.507 48.6932 921.264 47.7841C923.022 46.8674 924.912 46.4091 926.935 46.4091C929.033 46.4091 930.844 46.8939 932.366 47.8636C933.897 48.8333 934.999 50.2348 935.673 52.0682C936.355 53.8939 936.484 56.0985 936.06 58.6818ZM931.162 58.1023C931.427 56.5038 931.416 55.1629 931.128 54.0795C930.848 52.9886 930.332 52.1629 929.582 51.6023C928.832 51.0417 927.885 50.7614 926.741 50.7614C925.499 50.7614 924.359 51.072 923.321 51.6932C922.291 52.3144 921.42 53.2159 920.707 54.3977C920.003 55.572 919.514 57 919.241 58.6818C918.969 60.2879 918.976 61.6288 919.264 62.7045C919.56 63.7803 920.086 64.5947 920.844 65.1477C921.609 65.6932 922.56 65.9659 923.696 65.9659C924.931 65.9659 926.06 65.6629 927.082 65.0568C928.113 64.4432 928.98 63.553 929.685 62.3864C930.389 61.2121 930.882 59.7841 931.162 58.1023ZM937.818 70L941.682 46.7273H946.602L943.42 65.9432H953.398L952.716 70H937.818ZM955.974 70L959.838 46.7273H964.759L961.577 65.9432H971.554L970.872 70H955.974ZM989.901 70H981.537L985.401 46.7273H993.605C995.946 46.7273 997.889 47.2045 999.435 48.1591C1000.99 49.1136 1002.08 50.4811 1002.72 52.2614C1003.36 54.0341 1003.47 56.1515 1003.06 58.6136C1002.67 60.9924 1001.88 63.0341 1000.71 64.7386C999.533 66.4356 998.029 67.7386 996.196 68.6477C994.363 69.5492 992.264 70 989.901 70ZM987.162 65.7841H990.185C991.647 65.7841 992.927 65.5114 994.026 64.9659C995.132 64.4205 996.037 63.5795 996.741 62.4432C997.454 61.3068 997.957 59.8523 998.253 58.0795C998.533 56.3977 998.514 55.0341 998.196 53.9886C997.885 52.9356 997.283 52.1667 996.389 51.6818C995.495 51.1894 994.321 50.9432 992.866 50.9432H989.628L987.162 65.7841ZM1028.09 58.6818C1027.67 61.1667 1026.84 63.2765 1025.62 65.0114C1024.41 66.7462 1022.93 68.0644 1021.18 68.9659C1019.44 69.8674 1017.56 70.3182 1015.55 70.3182C1013.43 70.3182 1011.61 69.8371 1010.08 68.875C1008.56 67.9129 1007.45 66.5227 1006.77 64.7045C1006.09 62.8788 1005.96 60.678 1006.39 58.1023C1006.8 55.6098 1007.61 53.4962 1008.83 51.7614C1010.05 50.0189 1011.54 48.6932 1013.3 47.7841C1015.05 46.8674 1016.94 46.4091 1018.97 46.4091C1021.06 46.4091 1022.88 46.8939 1024.4 47.8636C1025.93 48.8333 1027.03 50.2348 1027.7 52.0682C1028.39 53.8939 1028.52 56.0985 1028.09 58.6818ZM1023.19 58.1023C1023.46 56.5038 1023.45 55.1629 1023.16 54.0795C1022.88 52.9886 1022.36 52.1629 1021.61 51.6023C1020.86 51.0417 1019.92 50.7614 1018.77 50.7614C1017.53 50.7614 1016.39 51.072 1015.35 51.6932C1014.32 52.3144 1013.45 53.2159 1012.74 54.3977C1012.03 55.572 1011.55 57 1011.27 58.6818C1011 60.2879 1011.01 61.6288 1011.3 62.7045C1011.59 63.7803 1012.12 64.5947 1012.88 65.1477C1013.64 65.6932 1014.59 65.9659 1015.73 65.9659C1016.96 65.9659 1018.09 65.6629 1019.11 65.0568C1020.14 64.4432 1021.01 63.553 1021.72 62.3864C1022.42 61.2121 1022.91 59.7841 1023.19 58.1023ZM1034.21 70L1031.42 46.7273H1036.79L1037.97 62.8977H1038.17L1045.09 46.7273H1049.69L1051.26 62.9318H1051.46L1057.99 46.7273H1063.36L1052.84 70H1048.04L1046.16 54.7841H1045.97L1039.01 70H1034.21ZM1085.46 46.7273L1081.6 70H1077.35L1069.68 55.3523H1069.49L1067.05 70H1062.13L1065.99 46.7273H1070.31L1077.95 61.3636H1078.14L1080.56 46.7273H1085.46ZM1093.07 70L1096.93 46.7273H1112.34L1111.66 50.7841H1101.17L1100.26 56.3295H1109.73L1109.05 60.3864H1099.58L1097.99 70H1093.07ZM1135.06 58.6818C1134.64 61.1667 1133.81 63.2765 1132.59 65.0114C1131.38 66.7462 1129.9 68.0644 1128.15 68.9659C1126.41 69.8674 1124.53 70.3182 1122.51 70.3182C1120.4 70.3182 1118.58 69.8371 1117.05 68.875C1115.53 67.9129 1114.42 66.5227 1113.74 64.7045C1113.06 62.8788 1112.93 60.678 1113.36 58.1023C1113.76 55.6098 1114.58 53.4962 1115.8 51.7614C1117.02 50.0189 1118.51 48.6932 1120.26 47.7841C1122.02 46.8674 1123.91 46.4091 1125.93 46.4091C1128.03 46.4091 1129.84 46.8939 1131.37 47.8636C1132.9 48.8333 1134 50.2348 1134.67 52.0682C1135.36 53.8939 1135.48 56.0985 1135.06 58.6818ZM1130.16 58.1023C1130.43 56.5038 1130.42 55.1629 1130.13 54.0795C1129.85 52.9886 1129.33 52.1629 1128.58 51.6023C1127.83 51.0417 1126.89 50.7614 1125.74 50.7614C1124.5 50.7614 1123.36 51.072 1122.32 51.6932C1121.29 52.3144 1120.42 53.2159 1119.71 54.3977C1119 55.572 1118.51 57 1118.24 58.6818C1117.97 60.2879 1117.98 61.6288 1118.26 62.7045C1118.56 63.7803 1119.09 64.5947 1119.84 65.1477C1120.61 65.6932 1121.56 65.9659 1122.7 65.9659C1123.93 65.9659 1125.06 65.6629 1126.08 65.0568C1127.11 64.4432 1127.98 63.553 1128.68 62.3864C1129.39 61.2121 1129.88 59.7841 1130.16 58.1023ZM1136.82 70L1140.68 46.7273H1149.86C1151.62 46.7273 1153.07 47.0379 1154.2 47.6591C1155.35 48.2803 1156.15 49.1629 1156.61 50.3068C1157.08 51.4432 1157.19 52.7841 1156.94 54.3295C1156.69 55.875 1156.13 57.2008 1155.27 58.3068C1154.42 59.4129 1153.32 60.2652 1151.95 60.8636C1150.6 61.4545 1149.03 61.75 1147.24 61.75H1141.09L1141.77 57.7955H1147.11C1148.05 57.7955 1148.86 57.6667 1149.52 57.4091C1150.19 57.1515 1150.72 56.7652 1151.1 56.25C1151.5 55.7348 1151.75 55.0947 1151.88 54.3295C1152 53.5492 1151.96 52.8977 1151.74 52.375C1151.52 51.8447 1151.12 51.4432 1150.55 51.1705C1149.97 50.8902 1149.21 50.75 1148.27 50.75H1144.95L1141.74 70H1136.82ZM1151.14 59.4091L1155.17 70H1149.74L1145.83 59.4091H1151.14ZM1169.28 46.7273H1175.34L1179.17 62.3636H1179.45L1188.43 46.7273H1194.5L1190.64 70H1185.87L1188.39 54.8523H1188.18L1179.68 69.8864H1176.42L1172.92 54.7955H1172.73L1170.18 70H1165.41L1169.28 46.7273ZM1217.97 58.6818C1217.54 61.1667 1216.72 63.2765 1215.5 65.0114C1214.29 66.7462 1212.81 68.0644 1211.06 68.9659C1209.31 69.8674 1207.44 70.3182 1205.42 70.3182C1203.31 70.3182 1201.48 69.8371 1199.95 68.875C1198.43 67.9129 1197.33 66.5227 1196.65 64.7045C1195.97 62.8788 1195.84 60.678 1196.26 58.1023C1196.67 55.6098 1197.48 53.4962 1198.7 51.7614C1199.92 50.0189 1201.41 48.6932 1203.17 47.7841C1204.93 46.8674 1206.82 46.4091 1208.84 46.4091C1210.94 46.4091 1212.75 46.8939 1214.27 47.8636C1215.8 48.8333 1216.91 50.2348 1217.58 52.0682C1218.26 53.8939 1218.39 56.0985 1217.97 58.6818ZM1213.07 58.1023C1213.33 56.5038 1213.32 55.1629 1213.03 54.0795C1212.75 52.9886 1212.24 52.1629 1211.49 51.6023C1210.74 51.0417 1209.79 50.7614 1208.65 50.7614C1207.41 50.7614 1206.27 51.072 1205.23 51.6932C1204.2 52.3144 1203.33 53.2159 1202.61 54.3977C1201.91 55.572 1201.42 57 1201.15 58.6818C1200.88 60.2879 1200.88 61.6288 1201.17 62.7045C1201.47 63.7803 1201.99 64.5947 1202.75 65.1477C1203.52 65.6932 1204.47 65.9659 1205.6 65.9659C1206.84 65.9659 1207.97 65.6629 1208.99 65.0568C1210.02 64.4432 1210.89 63.553 1211.59 62.3864C1212.3 61.2121 1212.79 59.7841 1213.07 58.1023ZM1219.72 70L1223.59 46.7273H1232.77C1234.53 46.7273 1235.97 47.0379 1237.11 47.6591C1238.25 48.2803 1239.06 49.1629 1239.52 50.3068C1239.99 51.4432 1240.1 52.7841 1239.85 54.3295C1239.59 55.875 1239.04 57.2008 1238.18 58.3068C1237.33 59.4129 1236.22 60.2652 1234.86 60.8636C1233.5 61.4545 1231.93 61.75 1230.14 61.75H1224L1224.68 57.7955H1230.02C1230.96 57.7955 1231.76 57.6667 1232.43 57.4091C1233.1 57.1515 1233.62 56.7652 1234.01 56.25C1234.4 55.7348 1234.66 55.0947 1234.78 54.3295C1234.91 53.5492 1234.86 52.8977 1234.64 52.375C1234.43 51.8447 1234.03 51.4432 1233.45 51.1705C1232.88 50.8902 1232.12 50.75 1231.18 50.75H1227.86L1224.64 70H1219.72ZM1234.04 59.4091L1238.08 70H1232.64L1228.74 59.4091H1234.04ZM1240.91 70L1244.78 46.7273H1260.46L1259.78 50.7841H1249.01L1248.11 56.3295H1258.06L1257.38 60.3864H1247.42L1246.51 65.9432H1257.32L1256.64 70H1240.91ZM1269.13 46.7273H1299.09L1284.11 71.4545L1269.13 46.7273ZM861.92 92.4886C861.958 91.5417 861.682 90.8106 861.091 90.2955C860.508 89.7803 859.625 89.5227 858.443 89.5227C857.64 89.5227 856.943 89.6364 856.352 89.8636C855.761 90.0833 855.288 90.3902 854.932 90.7841C854.583 91.1705 854.367 91.6174 854.284 92.125C854.201 92.5417 854.227 92.9053 854.364 93.2159C854.508 93.5265 854.731 93.7955 855.034 94.0227C855.345 94.2424 855.712 94.4356 856.136 94.6023C856.561 94.7614 857.011 94.8977 857.489 95.0114L859.489 95.5114C860.466 95.7386 861.345 96.0417 862.125 96.4205C862.913 96.7992 863.572 97.2652 864.102 97.8182C864.64 98.3712 865.019 99.0227 865.239 99.7727C865.458 100.523 865.489 101.383 865.33 102.352C865.087 103.777 864.523 105.011 863.636 106.057C862.75 107.095 861.587 107.902 860.148 108.477C858.708 109.045 857.042 109.33 855.148 109.33C853.269 109.33 851.682 109.042 850.386 108.466C849.091 107.89 848.148 107.038 847.557 105.909C846.973 104.773 846.799 103.367 847.034 101.693H851.795C851.712 102.473 851.826 103.125 852.136 103.648C852.455 104.163 852.928 104.553 853.557 104.818C854.186 105.076 854.924 105.205 855.773 105.205C856.614 105.205 857.36 105.083 858.011 104.841C858.67 104.598 859.205 104.261 859.614 103.83C860.023 103.398 860.273 102.902 860.364 102.341C860.455 101.818 860.375 101.379 860.125 101.023C859.875 100.667 859.473 100.364 858.92 100.114C858.375 99.8561 857.697 99.6288 856.886 99.4318L854.455 98.7955C852.576 98.3182 851.155 97.572 850.193 96.5568C849.231 95.5417 848.886 94.1742 849.159 92.4545C849.402 91.0455 849.989 89.8144 850.92 88.7614C851.86 87.7008 853.042 86.8788 854.466 86.2955C855.898 85.7045 857.462 85.4091 859.159 85.4091C860.886 85.4091 862.345 85.7083 863.534 86.3068C864.723 86.8977 865.591 87.7235 866.136 88.7841C866.682 89.8447 866.848 91.0795 866.636 92.4886H861.92ZM890.56 93.875H885.651C885.666 93.2235 885.582 92.6477 885.401 92.1477C885.219 91.6402 884.946 91.2083 884.582 90.8523C884.226 90.4962 883.791 90.2273 883.276 90.0455C882.76 89.8561 882.181 89.7614 881.537 89.7614C880.295 89.7614 879.154 90.072 878.116 90.6932C877.079 91.3144 876.204 92.2159 875.491 93.3977C874.779 94.572 874.287 95.9924 874.014 97.6591C873.749 99.2652 873.764 100.61 874.06 101.693C874.355 102.777 874.878 103.595 875.628 104.148C876.385 104.693 877.329 104.966 878.457 104.966C879.154 104.966 879.817 104.879 880.446 104.705C881.075 104.523 881.647 104.265 882.162 103.932C882.685 103.591 883.139 103.178 883.526 102.693C883.92 102.208 884.226 101.659 884.446 101.045H889.389C889.079 102.114 888.594 103.144 887.935 104.136C887.283 105.129 886.476 106.015 885.514 106.795C884.552 107.568 883.457 108.182 882.23 108.636C881.003 109.091 879.658 109.318 878.196 109.318C876.082 109.318 874.268 108.833 872.753 107.864C871.245 106.894 870.158 105.496 869.491 103.67C868.825 101.845 868.7 99.6439 869.116 97.0682C869.533 94.5758 870.348 92.4621 871.56 90.7273C872.779 88.9848 874.26 87.6629 876.003 86.7614C877.753 85.8598 879.624 85.4091 881.616 85.4091C883.003 85.4091 884.257 85.5985 885.378 85.9773C886.499 86.3561 887.454 86.9091 888.241 87.6364C889.037 88.3561 889.635 89.2386 890.037 90.2841C890.438 91.3295 890.613 92.5265 890.56 93.875ZM891.599 109L895.463 85.7273H904.645C906.402 85.7273 907.849 86.0379 908.986 86.6591C910.13 87.2803 910.933 88.1629 911.395 89.3068C911.865 90.4432 911.974 91.7841 911.724 93.3295C911.467 94.875 910.91 96.2008 910.054 97.3068C909.205 98.4129 908.099 99.2652 906.736 99.8636C905.38 100.455 903.808 100.75 902.02 100.75H895.872L896.554 96.7955H901.895C902.834 96.7955 903.637 96.6667 904.304 96.4091C904.971 96.1515 905.497 95.7652 905.884 95.25C906.277 94.7348 906.535 94.0947 906.656 93.3295C906.785 92.5492 906.74 91.8977 906.52 91.375C906.3 90.8447 905.902 90.4432 905.327 90.1705C904.751 89.8902 903.993 89.75 903.054 89.75H899.736L896.52 109H891.599ZM905.918 98.4091L909.952 109H904.52L900.611 98.4091H905.918ZM936.06 97.6818C935.635 100.167 934.813 102.277 933.594 104.011C932.382 105.746 930.901 107.064 929.151 107.966C927.408 108.867 925.529 109.318 923.514 109.318C921.401 109.318 919.579 108.837 918.048 107.875C916.526 106.913 915.423 105.523 914.741 103.705C914.06 101.879 913.931 99.678 914.355 97.1023C914.764 94.6098 915.579 92.4962 916.798 90.7614C918.018 89.0189 919.507 87.6932 921.264 86.7841C923.022 85.8674 924.912 85.4091 926.935 85.4091C929.033 85.4091 930.844 85.8939 932.366 86.8636C933.897 87.8333 934.999 89.2348 935.673 91.0682C936.355 92.8939 936.484 95.0985 936.06 97.6818ZM931.162 97.1023C931.427 95.5038 931.416 94.1629 931.128 93.0795C930.848 91.9886 930.332 91.1629 929.582 90.6023C928.832 90.0417 927.885 89.7614 926.741 89.7614C925.499 89.7614 924.359 90.072 923.321 90.6932C922.291 91.3144 921.42 92.2159 920.707 93.3977C920.003 94.572 919.514 96 919.241 97.6818C918.969 99.2879 918.976 100.629 919.264 101.705C919.56 102.78 920.086 103.595 920.844 104.148C921.609 104.693 922.56 104.966 923.696 104.966C924.931 104.966 926.06 104.663 927.082 104.057C928.113 103.443 928.98 102.553 929.685 101.386C930.389 100.212 930.882 98.7841 931.162 97.1023ZM937.818 109L941.682 85.7273H946.602L943.42 104.943H953.398L952.716 109H937.818ZM955.974 109L959.838 85.7273H964.759L961.577 104.943H971.554L970.872 109H955.974ZM989.901 109H981.537L985.401 85.7273H993.605C995.946 85.7273 997.889 86.2045 999.435 87.1591C1000.99 88.1136 1002.08 89.4811 1002.72 91.2614C1003.36 93.0341 1003.47 95.1515 1003.06 97.6136C1002.67 99.9924 1001.88 102.034 1000.71 103.739C999.533 105.436 998.029 106.739 996.196 107.648C994.363 108.549 992.264 109 989.901 109ZM987.162 104.784H990.185C991.647 104.784 992.927 104.511 994.026 103.966C995.132 103.42 996.037 102.58 996.741 101.443C997.454 100.307 997.957 98.8523 998.253 97.0795C998.533 95.3977 998.514 94.0341 998.196 92.9886C997.885 91.9356 997.283 91.1667 996.389 90.6818C995.495 90.1894 994.321 89.9432 992.866 89.9432H989.628L987.162 104.784ZM1028.09 97.6818C1027.67 100.167 1026.84 102.277 1025.62 104.011C1024.41 105.746 1022.93 107.064 1021.18 107.966C1019.44 108.867 1017.56 109.318 1015.55 109.318C1013.43 109.318 1011.61 108.837 1010.08 107.875C1008.56 106.913 1007.45 105.523 1006.77 103.705C1006.09 101.879 1005.96 99.678 1006.39 97.1023C1006.8 94.6098 1007.61 92.4962 1008.83 90.7614C1010.05 89.0189 1011.54 87.6932 1013.3 86.7841C1015.05 85.8674 1016.94 85.4091 1018.97 85.4091C1021.06 85.4091 1022.88 85.8939 1024.4 86.8636C1025.93 87.8333 1027.03 89.2348 1027.7 91.0682C1028.39 92.8939 1028.52 95.0985 1028.09 97.6818ZM1023.19 97.1023C1023.46 95.5038 1023.45 94.1629 1023.16 93.0795C1022.88 91.9886 1022.36 91.1629 1021.61 90.6023C1020.86 90.0417 1019.92 89.7614 1018.77 89.7614C1017.53 89.7614 1016.39 90.072 1015.35 90.6932C1014.32 91.3144 1013.45 92.2159 1012.74 93.3977C1012.03 94.572 1011.55 96 1011.27 97.6818C1011 99.2879 1011.01 100.629 1011.3 101.705C1011.59 102.78 1012.12 103.595 1012.88 104.148C1013.64 104.693 1014.59 104.966 1015.73 104.966C1016.96 104.966 1018.09 104.663 1019.11 104.057C1020.14 103.443 1021.01 102.553 1021.72 101.386C1022.42 100.212 1022.91 98.7841 1023.19 97.1023ZM1034.21 109L1031.42 85.7273H1036.79L1037.97 101.898H1038.17L1045.09 85.7273H1049.69L1051.26 101.932H1051.46L1057.99 85.7273H1063.36L1052.84 109H1048.04L1046.16 93.7841H1045.97L1039.01 109H1034.21ZM1085.46 85.7273L1081.6 109H1077.35L1069.68 94.3523H1069.49L1067.05 109H1062.13L1065.99 85.7273H1070.31L1077.95 100.364H1078.14L1080.56 85.7273H1085.46ZM1093.07 109L1096.93 85.7273H1112.34L1111.66 89.7841H1101.17L1100.26 95.3295H1109.73L1109.05 99.3864H1099.58L1097.99 109H1093.07ZM1135.06 97.6818C1134.64 100.167 1133.81 102.277 1132.59 104.011C1131.38 105.746 1129.9 107.064 1128.15 107.966C1126.41 108.867 1124.53 109.318 1122.51 109.318C1120.4 109.318 1118.58 108.837 1117.05 107.875C1115.53 106.913 1114.42 105.523 1113.74 103.705C1113.06 101.879 1112.93 99.678 1113.36 97.1023C1113.76 94.6098 1114.58 92.4962 1115.8 90.7614C1117.02 89.0189 1118.51 87.6932 1120.26 86.7841C1122.02 85.8674 1123.91 85.4091 1125.93 85.4091C1128.03 85.4091 1129.84 85.8939 1131.37 86.8636C1132.9 87.8333 1134 89.2348 1134.67 91.0682C1135.36 92.8939 1135.48 95.0985 1135.06 97.6818ZM1130.16 97.1023C1130.43 95.5038 1130.42 94.1629 1130.13 93.0795C1129.85 91.9886 1129.33 91.1629 1128.58 90.6023C1127.83 90.0417 1126.89 89.7614 1125.74 89.7614C1124.5 89.7614 1123.36 90.072 1122.32 90.6932C1121.29 91.3144 1120.42 92.2159 1119.71 93.3977C1119 94.572 1118.51 96 1118.24 97.6818C1117.97 99.2879 1117.98 100.629 1118.26 101.705C1118.56 102.78 1119.09 103.595 1119.84 104.148C1120.61 104.693 1121.56 104.966 1122.7 104.966C1123.93 104.966 1125.06 104.663 1126.08 104.057C1127.11 103.443 1127.98 102.553 1128.68 101.386C1129.39 100.212 1129.88 98.7841 1130.16 97.1023ZM1136.82 109L1140.68 85.7273H1149.86C1151.62 85.7273 1153.07 86.0379 1154.2 86.6591C1155.35 87.2803 1156.15 88.1629 1156.61 89.3068C1157.08 90.4432 1157.19 91.7841 1156.94 93.3295C1156.69 94.875 1156.13 96.2008 1155.27 97.3068C1154.42 98.4129 1153.32 99.2652 1151.95 99.8636C1150.6 100.455 1149.03 100.75 1147.24 100.75H1141.09L1141.77 96.7955H1147.11C1148.05 96.7955 1148.86 96.6667 1149.52 96.4091C1150.19 96.1515 1150.72 95.7652 1151.1 95.25C1151.5 94.7348 1151.75 94.0947 1151.88 93.3295C1152 92.5492 1151.96 91.8977 1151.74 91.375C1151.52 90.8447 1151.12 90.4432 1150.55 90.1705C1149.97 89.8902 1149.21 89.75 1148.27 89.75H1144.95L1141.74 109H1136.82ZM1151.14 98.4091L1155.17 109H1149.74L1145.83 98.4091H1151.14ZM1169.28 85.7273H1175.34L1179.17 101.364H1179.45L1188.43 85.7273H1194.5L1190.64 109H1185.87L1188.39 93.8523H1188.18L1179.68 108.886H1176.42L1172.92 93.7955H1172.73L1170.18 109H1165.41L1169.28 85.7273ZM1217.97 97.6818C1217.54 100.167 1216.72 102.277 1215.5 104.011C1214.29 105.746 1212.81 107.064 1211.06 107.966C1209.31 108.867 1207.44 109.318 1205.42 109.318C1203.31 109.318 1201.48 108.837 1199.95 107.875C1198.43 106.913 1197.33 105.523 1196.65 103.705C1195.97 101.879 1195.84 99.678 1196.26 97.1023C1196.67 94.6098 1197.48 92.4962 1198.7 90.7614C1199.92 89.0189 1201.41 87.6932 1203.17 86.7841C1204.93 85.8674 1206.82 85.4091 1208.84 85.4091C1210.94 85.4091 1212.75 85.8939 1214.27 86.8636C1215.8 87.8333 1216.91 89.2348 1217.58 91.0682C1218.26 92.8939 1218.39 95.0985 1217.97 97.6818ZM1213.07 97.1023C1213.33 95.5038 1213.32 94.1629 1213.03 93.0795C1212.75 91.9886 1212.24 91.1629 1211.49 90.6023C1210.74 90.0417 1209.79 89.7614 1208.65 89.7614C1207.41 89.7614 1206.27 90.072 1205.23 90.6932C1204.2 91.3144 1203.33 92.2159 1202.61 93.3977C1201.91 94.572 1201.42 96 1201.15 97.6818C1200.88 99.2879 1200.88 100.629 1201.17 101.705C1201.47 102.78 1201.99 103.595 1202.75 104.148C1203.52 104.693 1204.47 104.966 1205.6 104.966C1206.84 104.966 1207.97 104.663 1208.99 104.057C1210.02 103.443 1210.89 102.553 1211.59 101.386C1212.3 100.212 1212.79 98.7841 1213.07 97.1023ZM1219.72 109L1223.59 85.7273H1232.77C1234.53 85.7273 1235.97 86.0379 1237.11 86.6591C1238.25 87.2803 1239.06 88.1629 1239.52 89.3068C1239.99 90.4432 1240.1 91.7841 1239.85 93.3295C1239.59 94.875 1239.04 96.2008 1238.18 97.3068C1237.33 98.4129 1236.22 99.2652 1234.86 99.8636C1233.5 100.455 1231.93 100.75 1230.14 100.75H1224L1224.68 96.7955H1230.02C1230.96 96.7955 1231.76 96.6667 1232.43 96.4091C1233.1 96.1515 1233.62 95.7652 1234.01 95.25C1234.4 94.7348 1234.66 94.0947 1234.78 93.3295C1234.91 92.5492 1234.86 91.8977 1234.64 91.375C1234.43 90.8447 1234.03 90.4432 1233.45 90.1705C1232.88 89.8902 1232.12 89.75 1231.18 89.75H1227.86L1224.64 109H1219.72ZM1234.04 98.4091L1238.08 109H1232.64L1228.74 98.4091H1234.04ZM1240.91 109L1244.78 85.7273H1260.46L1259.78 89.7841H1249.01L1248.11 95.3295H1258.06L1257.38 99.3864H1247.42L1246.51 104.943H1257.32L1256.64 109H1240.91ZM1269.13 85.7273H1299.09L1284.11 110.455L1269.13 85.7273ZM861.92 131.489C861.958 130.542 861.682 129.811 861.091 129.295C860.508 128.78 859.625 128.523 858.443 128.523C857.64 128.523 856.943 128.636 856.352 128.864C855.761 129.083 855.288 129.39 854.932 129.784C854.583 130.17 854.367 130.617 854.284 131.125C854.201 131.542 854.227 131.905 854.364 132.216C854.508 132.527 854.731 132.795 855.034 133.023C855.345 133.242 855.712 133.436 856.136 133.602C856.561 133.761 857.011 133.898 857.489 134.011L859.489 134.511C860.466 134.739 861.345 135.042 862.125 135.42C862.913 135.799 863.572 136.265 864.102 136.818C864.64 137.371 865.019 138.023 865.239 138.773C865.458 139.523 865.489 140.383 865.33 141.352C865.087 142.777 864.523 144.011 863.636 145.057C862.75 146.095 861.587 146.902 860.148 147.477C858.708 148.045 857.042 148.33 855.148 148.33C853.269 148.33 851.682 148.042 850.386 147.466C849.091 146.89 848.148 146.038 847.557 144.909C846.973 143.773 846.799 142.367 847.034 140.693H851.795C851.712 141.473 851.826 142.125 852.136 142.648C852.455 143.163 852.928 143.553 853.557 143.818C854.186 144.076 854.924 144.205 855.773 144.205C856.614 144.205 857.36 144.083 858.011 143.841C858.67 143.598 859.205 143.261 859.614 142.83C860.023 142.398 860.273 141.902 860.364 141.341C860.455 140.818 860.375 140.379 860.125 140.023C859.875 139.667 859.473 139.364 858.92 139.114C858.375 138.856 857.697 138.629 856.886 138.432L854.455 137.795C852.576 137.318 851.155 136.572 850.193 135.557C849.231 134.542 848.886 133.174 849.159 131.455C849.402 130.045 849.989 128.814 850.92 127.761C851.86 126.701 853.042 125.879 854.466 125.295C855.898 124.705 857.462 124.409 859.159 124.409C860.886 124.409 862.345 124.708 863.534 125.307C864.723 125.898 865.591 126.723 866.136 127.784C866.682 128.845 866.848 130.08 866.636 131.489H861.92ZM890.56 132.875H885.651C885.666 132.223 885.582 131.648 885.401 131.148C885.219 130.64 884.946 130.208 884.582 129.852C884.226 129.496 883.791 129.227 883.276 129.045C882.76 128.856 882.181 128.761 881.537 128.761C880.295 128.761 879.154 129.072 878.116 129.693C877.079 130.314 876.204 131.216 875.491 132.398C874.779 133.572 874.287 134.992 874.014 136.659C873.749 138.265 873.764 139.61 874.06 140.693C874.355 141.777 874.878 142.595 875.628 143.148C876.385 143.693 877.329 143.966 878.457 143.966C879.154 143.966 879.817 143.879 880.446 143.705C881.075 143.523 881.647 143.265 882.162 142.932C882.685 142.591 883.139 142.178 883.526 141.693C883.92 141.208 884.226 140.659 884.446 140.045H889.389C889.079 141.114 888.594 142.144 887.935 143.136C887.283 144.129 886.476 145.015 885.514 145.795C884.552 146.568 883.457 147.182 882.23 147.636C881.003 148.091 879.658 148.318 878.196 148.318C876.082 148.318 874.268 147.833 872.753 146.864C871.245 145.894 870.158 144.496 869.491 142.67C868.825 140.845 868.7 138.644 869.116 136.068C869.533 133.576 870.348 131.462 871.56 129.727C872.779 127.985 874.26 126.663 876.003 125.761C877.753 124.86 879.624 124.409 881.616 124.409C883.003 124.409 884.257 124.598 885.378 124.977C886.499 125.356 887.454 125.909 888.241 126.636C889.037 127.356 889.635 128.239 890.037 129.284C890.438 130.33 890.613 131.527 890.56 132.875ZM891.599 148L895.463 124.727H904.645C906.402 124.727 907.849 125.038 908.986 125.659C910.13 126.28 910.933 127.163 911.395 128.307C911.865 129.443 911.974 130.784 911.724 132.33C911.467 133.875 910.91 135.201 910.054 136.307C909.205 137.413 908.099 138.265 906.736 138.864C905.38 139.455 903.808 139.75 902.02 139.75H895.872L896.554 135.795H901.895C902.834 135.795 903.637 135.667 904.304 135.409C904.971 135.152 905.497 134.765 905.884 134.25C906.277 133.735 906.535 133.095 906.656 132.33C906.785 131.549 906.74 130.898 906.52 130.375C906.3 129.845 905.902 129.443 905.327 129.17C904.751 128.89 903.993 128.75 903.054 128.75H899.736L896.52 148H891.599ZM905.918 137.409L909.952 148H904.52L900.611 137.409H905.918ZM936.06 136.682C935.635 139.167 934.813 141.277 933.594 143.011C932.382 144.746 930.901 146.064 929.151 146.966C927.408 147.867 925.529 148.318 923.514 148.318C921.401 148.318 919.579 147.837 918.048 146.875C916.526 145.913 915.423 144.523 914.741 142.705C914.06 140.879 913.931 138.678 914.355 136.102C914.764 133.61 915.579 131.496 916.798 129.761C918.018 128.019 919.507 126.693 921.264 125.784C923.022 124.867 924.912 124.409 926.935 124.409C929.033 124.409 930.844 124.894 932.366 125.864C933.897 126.833 934.999 128.235 935.673 130.068C936.355 131.894 936.484 134.098 936.06 136.682ZM931.162 136.102C931.427 134.504 931.416 133.163 931.128 132.08C930.848 130.989 930.332 130.163 929.582 129.602C928.832 129.042 927.885 128.761 926.741 128.761C925.499 128.761 924.359 129.072 923.321 129.693C922.291 130.314 921.42 131.216 920.707 132.398C920.003 133.572 919.514 135 919.241 136.682C918.969 138.288 918.976 139.629 919.264 140.705C919.56 141.78 920.086 142.595 920.844 143.148C921.609 143.693 922.56 143.966 923.696 143.966C924.931 143.966 926.06 143.663 927.082 143.057C928.113 142.443 928.98 141.553 929.685 140.386C930.389 139.212 930.882 137.784 931.162 136.102ZM937.818 148L941.682 124.727H946.602L943.42 143.943H953.398L952.716 148H937.818ZM955.974 148L959.838 124.727H964.759L961.577 143.943H971.554L970.872 148H955.974ZM989.901 148H981.537L985.401 124.727H993.605C995.946 124.727 997.889 125.205 999.435 126.159C1000.99 127.114 1002.08 128.481 1002.72 130.261C1003.36 132.034 1003.47 134.152 1003.06 136.614C1002.67 138.992 1001.88 141.034 1000.71 142.739C999.533 144.436 998.029 145.739 996.196 146.648C994.363 147.549 992.264 148 989.901 148ZM987.162 143.784H990.185C991.647 143.784 992.927 143.511 994.026 142.966C995.132 142.42 996.037 141.58 996.741 140.443C997.454 139.307 997.957 137.852 998.253 136.08C998.533 134.398 998.514 133.034 998.196 131.989C997.885 130.936 997.283 130.167 996.389 129.682C995.495 129.189 994.321 128.943 992.866 128.943H989.628L987.162 143.784ZM1028.09 136.682C1027.67 139.167 1026.84 141.277 1025.62 143.011C1024.41 144.746 1022.93 146.064 1021.18 146.966C1019.44 147.867 1017.56 148.318 1015.55 148.318C1013.43 148.318 1011.61 147.837 1010.08 146.875C1008.56 145.913 1007.45 144.523 1006.77 142.705C1006.09 140.879 1005.96 138.678 1006.39 136.102C1006.8 133.61 1007.61 131.496 1008.83 129.761C1010.05 128.019 1011.54 126.693 1013.3 125.784C1015.05 124.867 1016.94 124.409 1018.97 124.409C1021.06 124.409 1022.88 124.894 1024.4 125.864C1025.93 126.833 1027.03 128.235 1027.7 130.068C1028.39 131.894 1028.52 134.098 1028.09 136.682ZM1023.19 136.102C1023.46 134.504 1023.45 133.163 1023.16 132.08C1022.88 130.989 1022.36 130.163 1021.61 129.602C1020.86 129.042 1019.92 128.761 1018.77 128.761C1017.53 128.761 1016.39 129.072 1015.35 129.693C1014.32 130.314 1013.45 131.216 1012.74 132.398C1012.03 133.572 1011.55 135 1011.27 136.682C1011 138.288 1011.01 139.629 1011.3 140.705C1011.59 141.78 1012.12 142.595 1012.88 143.148C1013.64 143.693 1014.59 143.966 1015.73 143.966C1016.96 143.966 1018.09 143.663 1019.11 143.057C1020.14 142.443 1021.01 141.553 1021.72 140.386C1022.42 139.212 1022.91 137.784 1023.19 136.102ZM1034.21 148L1031.42 124.727H1036.79L1037.97 140.898H1038.17L1045.09 124.727H1049.69L1051.26 140.932H1051.46L1057.99 124.727H1063.36L1052.84 148H1048.04L1046.16 132.784H1045.97L1039.01 148H1034.21ZM1085.46 124.727L1081.6 148H1077.35L1069.68 133.352H1069.49L1067.05 148H1062.13L1065.99 124.727H1070.31L1077.95 139.364H1078.14L1080.56 124.727H1085.46ZM1093.07 148L1096.93 124.727H1112.34L1111.66 128.784H1101.17L1100.26 134.33H1109.73L1109.05 138.386H1099.58L1097.99 148H1093.07ZM1135.06 136.682C1134.64 139.167 1133.81 141.277 1132.59 143.011C1131.38 144.746 1129.9 146.064 1128.15 146.966C1126.41 147.867 1124.53 148.318 1122.51 148.318C1120.4 148.318 1118.58 147.837 1117.05 146.875C1115.53 145.913 1114.42 144.523 1113.74 142.705C1113.06 140.879 1112.93 138.678 1113.36 136.102C1113.76 133.61 1114.58 131.496 1115.8 129.761C1117.02 128.019 1118.51 126.693 1120.26 125.784C1122.02 124.867 1123.91 124.409 1125.93 124.409C1128.03 124.409 1129.84 124.894 1131.37 125.864C1132.9 126.833 1134 128.235 1134.67 130.068C1135.36 131.894 1135.48 134.098 1135.06 136.682ZM1130.16 136.102C1130.43 134.504 1130.42 133.163 1130.13 132.08C1129.85 130.989 1129.33 130.163 1128.58 129.602C1127.83 129.042 1126.89 128.761 1125.74 128.761C1124.5 128.761 1123.36 129.072 1122.32 129.693C1121.29 130.314 1120.42 131.216 1119.71 132.398C1119 133.572 1118.51 135 1118.24 136.682C1117.97 138.288 1117.98 139.629 1118.26 140.705C1118.56 141.78 1119.09 142.595 1119.84 143.148C1120.61 143.693 1121.56 143.966 1122.7 143.966C1123.93 143.966 1125.06 143.663 1126.08 143.057C1127.11 142.443 1127.98 141.553 1128.68 140.386C1129.39 139.212 1129.88 137.784 1130.16 136.102ZM1136.82 148L1140.68 124.727H1149.86C1151.62 124.727 1153.07 125.038 1154.2 125.659C1155.35 126.28 1156.15 127.163 1156.61 128.307C1157.08 129.443 1157.19 130.784 1156.94 132.33C1156.69 133.875 1156.13 135.201 1155.27 136.307C1154.42 137.413 1153.32 138.265 1151.95 138.864C1150.6 139.455 1149.03 139.75 1147.24 139.75H1141.09L1141.77 135.795H1147.11C1148.05 135.795 1148.86 135.667 1149.52 135.409C1150.19 135.152 1150.72 134.765 1151.1 134.25C1151.5 133.735 1151.75 133.095 1151.88 132.33C1152 131.549 1151.96 130.898 1151.74 130.375C1151.52 129.845 1151.12 129.443 1150.55 129.17C1149.97 128.89 1149.21 128.75 1148.27 128.75H1144.95L1141.74 148H1136.82ZM1151.14 137.409L1155.17 148H1149.74L1145.83 137.409H1151.14ZM1169.28 124.727H1175.34L1179.17 140.364H1179.45L1188.43 124.727H1194.5L1190.64 148H1185.87L1188.39 132.852H1188.18L1179.68 147.886H1176.42L1172.92 132.795H1172.73L1170.18 148H1165.41L1169.28 124.727ZM1217.97 136.682C1217.54 139.167 1216.72 141.277 1215.5 143.011C1214.29 144.746 1212.81 146.064 1211.06 146.966C1209.31 147.867 1207.44 148.318 1205.42 148.318C1203.31 148.318 1201.48 147.837 1199.95 146.875C1198.43 145.913 1197.33 144.523 1196.65 142.705C1195.97 140.879 1195.84 138.678 1196.26 136.102C1196.67 133.61 1197.48 131.496 1198.7 129.761C1199.92 128.019 1201.41 126.693 1203.17 125.784C1204.93 124.867 1206.82 124.409 1208.84 124.409C1210.94 124.409 1212.75 124.894 1214.27 125.864C1215.8 126.833 1216.91 128.235 1217.58 130.068C1218.26 131.894 1218.39 134.098 1217.97 136.682ZM1213.07 136.102C1213.33 134.504 1213.32 133.163 1213.03 132.08C1212.75 130.989 1212.24 130.163 1211.49 129.602C1210.74 129.042 1209.79 128.761 1208.65 128.761C1207.41 128.761 1206.27 129.072 1205.23 129.693C1204.2 130.314 1203.33 131.216 1202.61 132.398C1201.91 133.572 1201.42 135 1201.15 136.682C1200.88 138.288 1200.88 139.629 1201.17 140.705C1201.47 141.78 1201.99 142.595 1202.75 143.148C1203.52 143.693 1204.47 143.966 1205.6 143.966C1206.84 143.966 1207.97 143.663 1208.99 143.057C1210.02 142.443 1210.89 141.553 1211.59 140.386C1212.3 139.212 1212.79 137.784 1213.07 136.102ZM1219.72 148L1223.59 124.727H1232.77C1234.53 124.727 1235.97 125.038 1237.11 125.659C1238.25 126.28 1239.06 127.163 1239.52 128.307C1239.99 129.443 1240.1 130.784 1239.85 132.33C1239.59 133.875 1239.04 135.201 1238.18 136.307C1237.33 137.413 1236.22 138.265 1234.86 138.864C1233.5 139.455 1231.93 139.75 1230.14 139.75H1224L1224.68 135.795H1230.02C1230.96 135.795 1231.76 135.667 1232.43 135.409C1233.1 135.152 1233.62 134.765 1234.01 134.25C1234.4 133.735 1234.66 133.095 1234.78 132.33C1234.91 131.549 1234.86 130.898 1234.64 130.375C1234.43 129.845 1234.03 129.443 1233.45 129.17C1232.88 128.89 1232.12 128.75 1231.18 128.75H1227.86L1224.64 148H1219.72ZM1234.04 137.409L1238.08 148H1232.64L1228.74 137.409H1234.04ZM1240.91 148L1244.78 124.727H1260.46L1259.78 128.784H1249.01L1248.11 134.33H1258.06L1257.38 138.386H1247.42L1246.51 143.943H1257.32L1256.64 148H1240.91ZM1269.13 124.727H1299.09L1284.11 149.455L1269.13 124.727Z" fill="#0C0F16"/>
</svg>
