<svg width="980" height="211" viewBox="0 0 980 211" fill="none" xmlns="http://www.w3.org/2000/svg">
<path d="M0 100V6.90909H40.1818C47.0909 6.90909 53.1364 8.27273 58.3182 11C63.5 13.7273 67.5303 17.5606 70.4091 22.5C73.2879 27.4394 74.7273 33.2121 74.7273 39.8182C74.7273 46.4848 73.2424 52.2576 70.2727 57.1364C67.3333 62.0152 63.197 65.7727 57.8636 68.4091C52.5606 71.0455 46.3636 72.3636 39.2727 72.3636H15.2727V52.7273H34.1818C37.1515 52.7273 39.6818 52.2121 41.7727 51.1818C43.8939 50.1212 45.5152 48.6212 46.6364 46.6818C47.7879 44.7424 48.3636 42.4545 48.3636 39.8182C48.3636 37.1515 47.7879 34.8788 46.6364 33C45.5152 31.0909 43.8939 29.6364 41.7727 28.6364C39.6818 27.6061 37.1515 27.0909 34.1818 27.0909H25.2727V100H0ZM112.66 101.273C105.084 101.273 98.5994 99.7727 93.2055 96.7727C87.8115 93.7424 83.6752 89.5303 80.7964 84.1364C77.9176 78.7121 76.4782 72.4242 76.4782 65.2727C76.4782 58.1212 77.9176 51.8485 80.7964 46.4545C83.6752 41.0303 87.8115 36.8182 93.2055 33.8182C98.5994 30.7879 105.084 29.2727 112.66 29.2727C120.236 29.2727 126.721 30.7879 132.115 33.8182C137.508 36.8182 141.645 41.0303 144.524 46.4545C147.402 51.8485 148.842 58.1212 148.842 65.2727C148.842 72.4242 147.402 78.7121 144.524 84.1364C141.645 89.5303 137.508 93.7424 132.115 96.7727C126.721 99.7727 120.236 101.273 112.66 101.273ZM112.842 82.7273C114.963 82.7273 116.796 82.0152 118.342 80.5909C119.887 79.1667 121.084 77.1364 121.933 74.5C122.781 71.8636 123.205 68.7273 123.205 65.0909C123.205 61.4242 122.781 58.2879 121.933 55.6818C121.084 53.0455 119.887 51.0152 118.342 49.5909C116.796 48.1667 114.963 47.4545 112.842 47.4545C110.599 47.4545 108.675 48.1667 107.069 49.5909C105.463 51.0152 104.236 53.0455 103.387 55.6818C102.539 58.2879 102.115 61.4242 102.115 65.0909C102.115 68.7273 102.539 71.8636 103.387 74.5C104.236 77.1364 105.463 79.1667 107.069 80.5909C108.675 82.0152 110.599 82.7273 112.842 82.7273ZM155.184 100V30.1818H179.547V43.4545H180.275C181.547 38.5455 183.562 34.9545 186.32 32.6818C189.108 30.4091 192.365 29.2727 196.093 29.2727C197.184 29.2727 198.259 29.3636 199.32 29.5455C200.411 29.697 201.456 29.9242 202.456 30.2273V51.6364C201.214 51.2121 199.684 50.8939 197.865 50.6818C196.047 50.4697 194.487 50.3636 193.184 50.3636C190.729 50.3636 188.517 50.9242 186.547 52.0455C184.608 53.1364 183.078 54.6818 181.956 56.6818C180.835 58.6515 180.275 60.9697 180.275 63.6364V100H155.184ZM251.355 30.1818V48.3636H205.355V30.1818H251.355ZM214.264 13.4545H239.355V77.5455C239.355 78.5152 239.522 79.3333 239.855 80C240.188 80.6364 240.703 81.1212 241.4 81.4545C242.097 81.7576 242.991 81.9091 244.082 81.9091C244.84 81.9091 245.719 81.8182 246.719 81.6364C247.749 81.4545 248.507 81.303 248.991 81.1818L252.628 98.8182C251.507 99.1515 249.9 99.5606 247.81 100.045C245.749 100.53 243.294 100.848 240.446 101C234.688 101.303 229.855 100.712 225.946 99.2273C222.037 97.7121 219.097 95.3333 217.128 92.0909C215.158 88.8485 214.203 84.7879 214.264 79.9091V13.4545ZM299.572 30.1818V48.3636H252.845V30.1818H299.572ZM261.754 100V28.1818C261.754 22.4242 262.784 17.6515 264.845 13.8636C266.905 10.0758 269.814 7.24242 273.572 5.36363C277.329 3.48484 281.754 2.54545 286.845 2.54545C290.026 2.54545 293.117 2.78787 296.117 3.27273C299.148 3.75758 301.39 4.18182 302.845 4.54545L299.208 22.5455C298.299 22.2727 297.239 22.0606 296.026 21.9091C294.814 21.7273 293.754 21.6364 292.845 21.6364C290.481 21.6364 288.89 22.1364 288.072 23.1364C287.254 24.1364 286.845 25.4545 286.845 27.0909V100H261.754ZM336.925 101.273C329.349 101.273 322.864 99.7727 317.47 96.7727C312.077 93.7424 307.94 89.5303 305.061 84.1364C302.183 78.7121 300.743 72.4242 300.743 65.2727C300.743 58.1212 302.183 51.8485 305.061 46.4545C307.94 41.0303 312.077 36.8182 317.47 33.8182C322.864 30.7879 329.349 29.2727 336.925 29.2727C344.501 29.2727 350.986 30.7879 356.38 33.8182C361.773 36.8182 365.91 41.0303 368.789 46.4545C371.667 51.8485 373.107 58.1212 373.107 65.2727C373.107 72.4242 371.667 78.7121 368.789 84.1364C365.91 89.5303 361.773 93.7424 356.38 96.7727C350.986 99.7727 344.501 101.273 336.925 101.273ZM337.107 82.7273C339.228 82.7273 341.061 82.0152 342.607 80.5909C344.152 79.1667 345.349 77.1364 346.198 74.5C347.046 71.8636 347.47 68.7273 347.47 65.0909C347.47 61.4242 347.046 58.2879 346.198 55.6818C345.349 53.0455 344.152 51.0152 342.607 49.5909C341.061 48.1667 339.228 47.4545 337.107 47.4545C334.864 47.4545 332.94 48.1667 331.334 49.5909C329.728 51.0152 328.501 53.0455 327.652 55.6818C326.804 58.2879 326.38 61.4242 326.38 65.0909C326.38 68.7273 326.804 71.8636 327.652 74.5C328.501 77.1364 329.728 79.1667 331.334 80.5909C332.94 82.0152 334.864 82.7273 337.107 82.7273ZM404.54 6.90909V100H379.449V6.90909H404.54ZM413.484 100V30.1818H438.575V100H413.484ZM426.029 22.9091C422.635 22.9091 419.726 21.7879 417.302 19.5455C414.878 17.303 413.665 14.6061 413.665 11.4545C413.665 8.30303 414.878 5.60606 417.302 3.36363C419.726 1.12121 422.635 0 426.029 0C429.453 0 432.362 1.12121 434.756 3.36363C437.181 5.60606 438.393 8.30303 438.393 11.4545C438.393 14.6061 437.181 17.303 434.756 19.5455C432.362 21.7879 429.453 22.9091 426.029 22.9091ZM481.155 101.273C473.579 101.273 467.094 99.7727 461.7 96.7727C456.307 93.7424 452.17 89.5303 449.291 84.1364C446.413 78.7121 444.973 72.4242 444.973 65.2727C444.973 58.1212 446.413 51.8485 449.291 46.4545C452.17 41.0303 456.307 36.8182 461.7 33.8182C467.094 30.7879 473.579 29.2727 481.155 29.2727C488.731 29.2727 495.216 30.7879 500.61 33.8182C506.003 36.8182 510.14 41.0303 513.019 46.4545C515.897 51.8485 517.337 58.1212 517.337 65.2727C517.337 72.4242 515.897 78.7121 513.019 84.1364C510.14 89.5303 506.003 93.7424 500.61 96.7727C495.216 99.7727 488.731 101.273 481.155 101.273ZM481.337 82.7273C483.458 82.7273 485.291 82.0152 486.837 80.5909C488.382 79.1667 489.579 77.1364 490.428 74.5C491.276 71.8636 491.7 68.7273 491.7 65.0909C491.7 61.4242 491.276 58.2879 490.428 55.6818C489.579 53.0455 488.382 51.0152 486.837 49.5909C485.291 48.1667 483.458 47.4545 481.337 47.4545C479.094 47.4545 477.17 48.1667 475.564 49.5909C473.958 51.0152 472.731 53.0455 471.882 55.6818C471.034 58.2879 470.61 61.4242 470.61 65.0909C470.61 68.7273 471.034 71.8636 471.882 74.5C472.731 77.1364 473.958 79.1667 475.564 80.5909C477.17 82.0152 479.094 82.7273 481.337 82.7273ZM595.157 36C594.914 32.9697 593.778 30.6061 591.748 28.9091C589.748 27.2121 586.702 26.3636 582.611 26.3636C580.005 26.3636 577.869 26.6818 576.202 27.3182C574.566 27.9242 573.354 28.7576 572.566 29.8182C571.778 30.8788 571.369 32.0909 571.339 33.4545C571.278 34.5758 571.475 35.5909 571.93 36.5C572.414 37.3788 573.172 38.1818 574.202 38.9091C575.233 39.6061 576.551 40.2424 578.157 40.8182C579.763 41.3939 581.672 41.9091 583.884 42.3636L591.52 44C596.672 45.0909 601.081 46.5303 604.748 48.3182C608.414 50.1061 611.414 52.2121 613.748 54.6364C616.081 57.0303 617.793 59.7273 618.884 62.7273C620.005 65.7273 620.581 69 620.611 72.5455C620.581 78.6667 619.051 83.8485 616.02 88.0909C612.99 92.3333 608.657 95.5606 603.02 97.7727C597.414 99.9848 590.672 101.091 582.793 101.091C574.702 101.091 567.642 99.8939 561.611 97.5C555.611 95.1061 550.945 91.4242 547.611 86.4545C544.308 81.4545 542.642 75.0606 542.611 67.2727H566.611C566.763 70.1212 567.475 72.5152 568.748 74.4545C570.02 76.3939 571.808 77.8636 574.111 78.8636C576.445 79.8636 579.217 80.3636 582.43 80.3636C585.126 80.3636 587.384 80.0303 589.202 79.3636C591.02 78.697 592.399 77.7727 593.339 76.5909C594.278 75.4091 594.763 74.0606 594.793 72.5455C594.763 71.1212 594.293 69.8788 593.384 68.8182C592.505 67.7273 591.051 66.7576 589.02 65.9091C586.99 65.0303 584.248 64.2121 580.793 63.4545L571.52 61.4545C563.278 59.6667 556.778 56.6818 552.02 52.5C547.293 48.2879 544.945 42.5455 544.975 35.2727C544.945 29.3636 546.52 24.197 549.702 19.7727C552.914 15.3182 557.354 11.8485 563.02 9.36363C568.717 6.87878 575.248 5.63636 582.611 5.63636C590.126 5.63636 596.626 6.89394 602.111 9.40909C607.596 11.9242 611.823 15.4697 614.793 20.0455C617.793 24.5909 619.308 29.9091 619.339 36H595.157ZM626.749 100V30.1818H651.84V100H626.749ZM639.294 22.9091C635.9 22.9091 632.991 21.7879 630.567 19.5455C628.143 17.303 626.93 14.6061 626.93 11.4545C626.93 8.30303 628.143 5.60606 630.567 3.36363C632.991 1.12121 635.9 0 639.294 0C642.718 0 645.627 1.12121 648.021 3.36363C650.446 5.60606 651.658 8.30303 651.658 11.4545C651.658 14.6061 650.446 17.303 648.021 19.5455C645.627 21.7879 642.718 22.9091 639.294 22.9091ZM702.42 30.1818V48.3636H656.42V30.1818H702.42ZM665.329 13.4545H690.42V77.5455C690.42 78.5152 690.587 79.3333 690.92 80C691.253 80.6364 691.768 81.1212 692.465 81.4545C693.162 81.7576 694.056 81.9091 695.147 81.9091C695.905 81.9091 696.784 81.8182 697.784 81.6364C698.814 81.4545 699.571 81.303 700.056 81.1818L703.693 98.8182C702.572 99.1515 700.965 99.5606 698.875 100.045C696.814 100.53 694.359 100.848 691.511 101C685.753 101.303 680.92 100.712 677.011 99.2273C673.102 97.7121 670.162 95.3333 668.193 92.0909C666.223 88.8485 665.268 84.7879 665.329 79.9091V13.4545ZM741.523 101.273C734.069 101.273 727.644 99.8485 722.25 97C716.887 94.1212 712.75 90 709.841 84.6364C706.963 79.2424 705.523 72.7879 705.523 65.2727C705.523 58.0606 706.978 51.7576 709.887 46.3636C712.796 40.9697 716.902 36.7727 722.205 33.7727C727.508 30.7727 733.766 29.2727 740.978 29.2727C746.25 29.2727 751.023 30.0909 755.296 31.7273C759.569 33.3636 763.22 35.7424 766.25 38.8636C769.281 41.9545 771.614 45.7121 773.25 50.1364C774.887 54.5606 775.705 59.5455 775.705 65.0909V70.9091H713.341V57.0909H752.614C752.584 55.0909 752.069 53.3333 751.069 51.8182C750.099 50.2727 748.781 49.0758 747.114 48.2273C745.478 47.3485 743.614 46.9091 741.523 46.9091C739.493 46.9091 737.629 47.3485 735.932 48.2273C734.235 49.0758 732.872 50.2576 731.841 51.7727C730.841 53.2879 730.311 55.0606 730.25 57.0909V72C730.25 74.2424 730.72 76.2424 731.66 78C732.599 79.7576 733.947 81.1364 735.705 82.1364C737.463 83.1364 739.584 83.6364 742.069 83.6364C743.796 83.6364 745.372 83.3939 746.796 82.9091C748.25 82.4242 749.493 81.7273 750.523 80.8182C751.554 79.8788 752.311 78.7576 752.796 77.4545H775.705C774.917 82.303 773.054 86.5152 770.114 90.0909C767.175 93.6364 763.281 96.3939 758.432 98.3636C753.614 100.303 747.978 101.273 741.523 101.273ZM795.74 101.455C792.225 101.455 789.21 100.227 786.695 97.7727C784.21 95.2879 782.982 92.2727 783.013 88.7273C782.982 85.2727 784.21 82.3182 786.695 79.8636C789.21 77.4091 792.225 76.1818 795.74 76.1818C799.073 76.1818 802.013 77.4091 804.558 79.8636C807.134 82.3182 808.437 85.2727 808.467 88.7273C808.437 91.0909 807.816 93.2424 806.604 95.1818C805.422 97.0909 803.876 98.6212 801.967 99.7727C800.058 100.894 797.982 101.455 795.74 101.455ZM795.74 54.5455C792.225 54.5455 789.21 53.3182 786.695 50.8636C784.21 48.3788 782.982 45.3636 783.013 41.8182C782.982 38.3636 784.21 35.4091 786.695 32.9545C789.21 30.5 792.225 29.2727 795.74 29.2727C799.073 29.2727 802.013 30.5 804.558 32.9545C807.134 35.4091 808.437 38.3636 808.467 41.8182C808.437 44.1818 807.816 46.3333 806.604 48.2727C805.422 50.1818 803.876 51.7121 801.967 52.8636C800.058 53.9848 797.982 54.5455 795.74 54.5455ZM80.5455 115.909V209H59.4545L25.8182 160.091H25.2727V209H0V115.909H21.4545L54.5455 164.636H55.2727V115.909H80.5455ZM122.66 210.273C115.084 210.273 108.599 208.773 103.205 205.773C97.8115 202.742 93.6752 198.53 90.7964 193.136C87.9176 187.712 86.4782 181.424 86.4782 174.273C86.4782 167.121 87.9176 160.848 90.7964 155.455C93.6752 150.03 97.8115 145.818 103.205 142.818C108.599 139.788 115.084 138.273 122.66 138.273C130.236 138.273 136.721 139.788 142.115 142.818C147.508 145.818 151.645 150.03 154.524 155.455C157.402 160.848 158.842 167.121 158.842 174.273C158.842 181.424 157.402 187.712 154.524 193.136C151.645 198.53 147.508 202.742 142.115 205.773C136.721 208.773 130.236 210.273 122.66 210.273ZM122.842 191.727C124.963 191.727 126.796 191.015 128.342 189.591C129.887 188.167 131.084 186.136 131.933 183.5C132.781 180.864 133.205 177.727 133.205 174.091C133.205 170.424 132.781 167.288 131.933 164.682C131.084 162.045 129.887 160.015 128.342 158.591C126.796 157.167 124.963 156.455 122.842 156.455C120.599 156.455 118.675 157.167 117.069 158.591C115.463 160.015 114.236 162.045 113.387 164.682C112.539 167.288 112.115 170.424 112.115 174.091C112.115 177.727 112.539 180.864 113.387 183.5C114.236 186.136 115.463 188.167 117.069 189.591C118.675 191.015 120.599 191.727 122.842 191.727ZM229.002 161.909H205.911C205.79 160.485 205.29 159.258 204.411 158.227C203.532 157.197 202.396 156.409 201.002 155.864C199.638 155.288 198.123 155 196.456 155C194.305 155 192.456 155.394 190.911 156.182C189.365 156.97 188.608 158.091 188.638 159.545C188.608 160.576 189.047 161.53 189.956 162.409C190.896 163.288 192.699 163.97 195.365 164.455L209.547 167C216.699 168.303 222.017 170.5 225.502 173.591C229.017 176.652 230.79 180.758 230.82 185.909C230.79 190.879 229.305 195.197 226.365 198.864C223.456 202.5 219.472 205.318 214.411 207.318C209.381 209.288 203.638 210.273 197.184 210.273C186.517 210.273 178.168 208.091 172.138 203.727C166.138 199.364 162.79 193.606 162.093 186.455H187.002C187.335 188.667 188.426 190.379 190.275 191.591C192.153 192.773 194.517 193.364 197.365 193.364C199.668 193.364 201.562 192.97 203.047 192.182C204.562 191.394 205.335 190.273 205.365 188.818C205.335 187.485 204.668 186.424 203.365 185.636C202.093 184.848 200.093 184.212 197.365 183.727L185.002 181.545C177.881 180.303 172.547 177.939 169.002 174.455C165.456 170.97 163.699 166.485 163.729 161C163.699 156.152 164.972 152.045 167.547 148.682C170.153 145.288 173.865 142.712 178.684 140.955C183.532 139.167 189.275 138.273 195.911 138.273C206.002 138.273 213.956 140.364 219.775 144.545C225.623 148.727 228.699 154.515 229.002 161.909ZM270.048 210.273C262.594 210.273 256.169 208.848 250.775 206C245.412 203.121 241.275 199 238.366 193.636C235.488 188.242 234.048 181.788 234.048 174.273C234.048 167.061 235.503 160.758 238.412 155.364C241.321 149.97 245.427 145.773 250.73 142.773C256.033 139.773 262.291 138.273 269.503 138.273C274.775 138.273 279.548 139.091 283.821 140.727C288.094 142.364 291.745 144.742 294.775 147.864C297.806 150.955 300.139 154.712 301.775 159.136C303.412 163.561 304.23 168.545 304.23 174.091V179.909H241.866V166.091H281.139C281.109 164.091 280.594 162.333 279.594 160.818C278.624 159.273 277.306 158.076 275.639 157.227C274.003 156.348 272.139 155.909 270.048 155.909C268.018 155.909 266.154 156.348 264.457 157.227C262.76 158.076 261.397 159.258 260.366 160.773C259.366 162.288 258.836 164.061 258.775 166.091V181C258.775 183.242 259.245 185.242 260.185 187C261.124 188.758 262.472 190.136 264.23 191.136C265.988 192.136 268.109 192.636 270.594 192.636C272.321 192.636 273.897 192.394 275.321 191.909C276.775 191.424 278.018 190.727 279.048 189.818C280.078 188.879 280.836 187.758 281.321 186.455H304.23C303.442 191.303 301.578 195.515 298.639 199.091C295.7 202.636 291.806 205.394 286.957 207.364C282.139 209.303 276.503 210.273 270.048 210.273ZM310.265 209V115.909H335.356V151.364H335.72C336.629 149 337.962 146.833 339.72 144.864C341.477 142.864 343.659 141.273 346.265 140.091C348.871 138.879 351.901 138.273 355.356 138.273C359.962 138.273 364.341 139.5 368.492 141.955C372.674 144.409 376.068 148.273 378.674 153.545C381.31 158.818 382.629 165.667 382.629 174.091C382.629 182.152 381.371 188.833 378.856 194.136C376.371 199.439 373.038 203.394 368.856 206C364.704 208.606 360.144 209.909 355.174 209.909C351.901 209.909 348.977 209.379 346.401 208.318C343.856 207.227 341.674 205.758 339.856 203.909C338.068 202.03 336.689 199.909 335.72 197.545H335.174V209H310.265ZM334.81 174.091C334.81 177.485 335.25 180.424 336.129 182.909C337.038 185.364 338.31 187.273 339.947 188.636C341.614 189.97 343.598 190.636 345.901 190.636C348.204 190.636 350.159 189.985 351.765 188.682C353.401 187.348 354.644 185.455 355.492 183C356.371 180.515 356.81 177.545 356.81 174.091C356.81 170.636 356.371 167.682 355.492 165.227C354.644 162.742 353.401 160.848 351.765 159.545C350.159 158.212 348.204 157.545 345.901 157.545C343.598 157.545 341.614 158.212 339.947 159.545C338.31 160.848 337.038 162.742 336.129 165.227C335.25 167.682 334.81 170.636 334.81 174.091ZM414.38 115.909V209H389.289V115.909H414.38ZM456.778 210.273C449.324 210.273 442.899 208.848 437.505 206C432.142 203.121 428.005 199 425.096 193.636C422.218 188.242 420.778 181.788 420.778 174.273C420.778 167.061 422.233 160.758 425.142 155.364C428.051 149.97 432.157 145.773 437.46 142.773C442.763 139.773 449.021 138.273 456.233 138.273C461.505 138.273 466.278 139.091 470.551 140.727C474.824 142.364 478.475 144.742 481.505 147.864C484.536 150.955 486.869 154.712 488.505 159.136C490.142 163.561 490.96 168.545 490.96 174.091V179.909H428.596V166.091H467.869C467.839 164.091 467.324 162.333 466.324 160.818C465.354 159.273 464.036 158.076 462.369 157.227C460.733 156.348 458.869 155.909 456.778 155.909C454.748 155.909 452.884 156.348 451.187 157.227C449.49 158.076 448.127 159.258 447.096 160.773C446.096 162.288 445.566 164.061 445.505 166.091V181C445.505 183.242 445.975 185.242 446.915 187C447.854 188.758 449.202 190.136 450.96 191.136C452.718 192.136 454.839 192.636 457.324 192.636C459.051 192.636 460.627 192.394 462.051 191.909C463.505 191.424 464.748 190.727 465.778 189.818C466.808 188.879 467.566 187.758 468.051 186.455H490.96C490.172 191.303 488.308 195.515 485.369 199.091C482.43 202.636 478.536 205.394 473.687 207.364C468.869 209.303 463.233 210.273 456.778 210.273ZM530.813 210.273C523.359 210.273 516.934 208.848 511.54 206C506.177 203.121 502.04 199 499.131 193.636C496.253 188.242 494.813 181.788 494.813 174.273C494.813 167.061 496.268 160.758 499.177 155.364C502.086 149.97 506.192 145.773 511.495 142.773C516.798 139.773 523.056 138.273 530.268 138.273C535.54 138.273 540.313 139.091 544.586 140.727C548.859 142.364 552.51 144.742 555.54 147.864C558.571 150.955 560.904 154.712 562.54 159.136C564.177 163.561 564.995 168.545 564.995 174.091V179.909H502.631V166.091H541.904C541.874 164.091 541.359 162.333 540.359 160.818C539.389 159.273 538.071 158.076 536.404 157.227C534.768 156.348 532.904 155.909 530.813 155.909C528.783 155.909 526.919 156.348 525.222 157.227C523.525 158.076 522.162 159.258 521.131 160.773C520.131 162.288 519.601 164.061 519.54 166.091V181C519.54 183.242 520.01 185.242 520.95 187C521.889 188.758 523.237 190.136 524.995 191.136C526.753 192.136 528.874 192.636 531.359 192.636C533.086 192.636 534.662 192.394 536.086 191.909C537.54 191.424 538.783 190.727 539.813 189.818C540.843 188.879 541.601 187.758 542.086 186.455H564.995C564.207 191.303 562.343 195.515 559.404 199.091C556.465 202.636 552.571 205.394 547.722 207.364C542.904 209.303 537.268 210.273 530.813 210.273ZM596.666 209.909C591.697 209.909 587.121 208.606 582.939 206C578.788 203.394 575.454 199.439 572.939 194.136C570.454 188.833 569.212 182.152 569.212 174.091C569.212 165.667 570.515 158.818 573.121 153.545C575.757 148.273 579.151 144.409 583.303 141.955C587.485 139.5 591.879 138.273 596.485 138.273C599.939 138.273 602.969 138.879 605.575 140.091C608.182 141.273 610.363 142.864 612.121 144.864C613.879 146.833 615.212 149 616.121 151.364H616.485V115.909H641.575V209H616.666V197.545H616.121C615.151 199.909 613.757 202.03 611.939 203.909C610.151 205.758 607.969 207.227 605.394 208.318C602.848 209.379 599.939 209.909 596.666 209.909ZM605.939 190.636C608.242 190.636 610.212 189.97 611.848 188.636C613.515 187.273 614.788 185.364 615.666 182.909C616.575 180.424 617.03 177.485 617.03 174.091C617.03 170.636 616.575 167.682 615.666 165.227C614.788 162.742 613.515 160.848 611.848 159.545C610.212 158.212 608.242 157.545 605.939 157.545C603.636 157.545 601.666 158.212 600.03 159.545C598.424 160.848 597.182 162.742 596.303 165.227C595.454 167.682 595.03 170.636 595.03 174.091C595.03 177.545 595.454 180.515 596.303 183C597.182 185.455 598.424 187.348 600.03 188.682C601.666 189.985 603.636 190.636 605.939 190.636ZM671.35 209V115.909H711.532C718.441 115.909 724.486 117.273 729.668 120C734.85 122.727 738.88 126.561 741.759 131.5C744.638 136.439 746.077 142.212 746.077 148.818C746.077 155.485 744.592 161.258 741.623 166.136C738.683 171.015 734.547 174.773 729.214 177.409C723.911 180.045 717.714 181.364 710.623 181.364H686.623V161.727H705.532C708.501 161.727 711.032 161.212 713.123 160.182C715.244 159.121 716.865 157.621 717.986 155.682C719.138 153.742 719.714 151.455 719.714 148.818C719.714 146.152 719.138 143.879 717.986 142C716.865 140.091 715.244 138.636 713.123 137.636C711.032 136.606 708.501 136.091 705.532 136.091H696.623V209H671.35ZM776.965 115.909V209H751.874V115.909H776.965ZM805.363 210.091C800.909 210.091 796.969 209.364 793.545 207.909C790.151 206.424 787.484 204.182 785.545 201.182C783.606 198.182 782.636 194.364 782.636 189.727C782.636 185.909 783.287 182.652 784.59 179.955C785.893 177.227 787.712 175 790.045 173.273C792.378 171.545 795.09 170.227 798.181 169.318C801.303 168.409 804.666 167.818 808.272 167.545C812.181 167.242 815.318 166.879 817.681 166.455C820.075 166 821.803 165.379 822.863 164.591C823.924 163.773 824.454 162.697 824.454 161.364V161.182C824.454 159.364 823.757 157.97 822.363 157C820.969 156.03 819.181 155.545 817 155.545C814.606 155.545 812.651 156.076 811.136 157.136C809.651 158.167 808.757 159.758 808.454 161.909H785.363C785.666 157.667 787.015 153.758 789.409 150.182C791.833 146.576 795.363 143.697 800 141.545C804.636 139.364 810.424 138.273 817.363 138.273C822.363 138.273 826.848 138.864 830.818 140.045C834.787 141.197 838.166 142.818 840.954 144.909C843.742 146.97 845.863 149.394 847.318 152.182C848.803 154.939 849.545 157.939 849.545 161.182V209H826.09V199.182H825.545C824.151 201.788 822.454 203.894 820.454 205.5C818.484 207.106 816.227 208.273 813.681 209C811.166 209.727 808.393 210.091 805.363 210.091ZM813.545 194.273C815.454 194.273 817.242 193.879 818.909 193.091C820.606 192.303 821.984 191.167 823.045 189.682C824.106 188.197 824.636 186.394 824.636 184.273V178.455C823.969 178.727 823.257 178.985 822.5 179.227C821.772 179.47 820.984 179.697 820.136 179.909C819.318 180.121 818.439 180.318 817.5 180.5C816.59 180.682 815.636 180.848 814.636 181C812.697 181.303 811.106 181.803 809.863 182.5C808.651 183.167 807.742 184 807.136 185C806.56 185.97 806.272 187.061 806.272 188.273C806.272 190.212 806.954 191.697 808.318 192.727C809.681 193.758 811.424 194.273 813.545 194.273ZM882.785 169.727V209H857.694V139.182H881.512V152.455H882.239C883.754 148.03 886.421 144.561 890.239 142.045C894.088 139.53 898.572 138.273 903.694 138.273C908.633 138.273 912.921 139.409 916.557 141.682C920.224 143.924 923.057 147.015 925.057 150.955C927.088 154.894 928.088 159.394 928.057 164.455V209H902.966V169.727C902.997 166.273 902.118 163.561 900.33 161.591C898.572 159.621 896.118 158.636 892.966 158.636C890.906 158.636 889.103 159.091 887.557 160C886.042 160.879 884.875 162.152 884.057 163.818C883.239 165.455 882.815 167.424 882.785 169.727ZM978.24 139.182V157.364H932.24V139.182H978.24ZM941.149 122.455H966.24V186.545C966.24 187.515 966.407 188.333 966.74 189C967.073 189.636 967.588 190.121 968.285 190.455C968.982 190.758 969.876 190.909 970.967 190.909C971.725 190.909 972.604 190.818 973.604 190.636C974.634 190.455 975.392 190.303 975.876 190.182L979.513 207.818C978.392 208.152 976.785 208.561 974.695 209.045C972.634 209.53 970.179 209.848 967.331 210C961.573 210.303 956.74 209.712 952.831 208.227C948.922 206.712 945.982 204.333 944.013 201.091C942.043 197.848 941.088 193.788 941.149 188.909V122.455Z" fill="#0C0F16"/>
</svg>
